<svg width="220" height="100" viewBox="0 0 220 100" fill="none" xmlns="http://www.w3.org/2000/svg">
<g clip-path="url(#clip0_41_103)">
<path d="M41.929 39.3539L31.2881 50C31.2881 50 31.2933 50 31.2984 50C41.6555 50 50.0465 58.3961 50.0465 68.7481C50.0465 79.1 41.6504 87.4961 31.2984 87.4961C20.9465 87.4961 12.5504 79.1 12.5504 68.7481L1.90942 79.3942C6.26488 91.413 17.7779 100 31.2984 100C48.5551 100 62.5504 86.0099 62.5504 68.7481C62.5504 55.2224 53.9581 43.7042 41.9342 39.3539H41.929Z" fill="white"/>
<path d="M0 68.7481V0H12.4987V56.2494L0 68.7481Z" fill="white"/>
<path d="M177.542 98.1422L188.182 87.4961C188.182 87.4961 188.177 87.4961 188.172 87.4961C177.815 87.4961 169.424 79.1 169.424 68.7481C169.424 58.3961 177.82 50 188.172 50C198.524 50 206.92 58.3961 206.92 68.7481L217.561 58.102C213.206 46.0832 201.693 37.4961 188.172 37.4961C170.915 37.4961 156.92 51.4862 156.92 68.7481C156.92 82.2737 165.512 93.7919 177.536 98.1422H177.542Z" fill="white"/>
<path d="M219.424 68.7481V100H206.92V81.2468L219.424 68.7481Z" fill="white"/>
<path d="M120.363 39.3539L109.722 50C109.722 50 109.728 50 109.733 50C120.09 50 128.481 58.3961 128.481 68.7481C128.481 79.1 120.085 87.4961 109.733 87.4961C99.3808 87.4961 90.9847 79.1 90.9847 68.7481L80.3438 79.3942C84.6992 91.413 96.2123 100 109.733 100C126.989 100 140.985 86.0099 140.985 68.7481C140.985 55.2224 132.392 43.7042 120.369 39.3539H120.363Z" fill="white"/>
<path d="M78.4807 68.7481V0H90.9794V56.2494L78.4807 68.7481Z" fill="white"/>
</g>
<defs>
<clipPath id="clip0_41_103">
<rect width="219.424" height="100" fill="white"/>
</clipPath>
</defs>
</svg>
