<svg xmlns="http://www.w3.org/2000/svg" width="179" height="44.67" viewBox="0 0 179 44.67"><g transform="translate(1272.784 7163.44)"><g transform="translate(-1272.784 -7163.44)"><path d="M224.171,269.03a3.735,3.735,0,0,0-2.717,1.171,3.739,3.739,0,0,0-5.434,0,3.75,3.75,0,1,0,0,5.158,3.739,3.739,0,0,0,5.434,0,3.748,3.748,0,1,0,2.717-6.329" transform="translate(-204.156 -261.144)" fill="#fff"/><path d="M233.3,365.7a3.748,3.748,0,0,0-2.847-3.636,3.747,3.747,0,0,0-.178-7.314,3.75,3.75,0,1,0-1.519.014,3.745,3.745,0,0,0-1.923,1.083,3.742,3.742,0,0,0-5.379.061,3.739,3.739,0,0,0-5.434,0,3.75,3.75,0,1,0,0,5.159,3.739,3.739,0,0,0,5.434,0,3.738,3.738,0,0,0,5.437,0,3.747,3.747,0,0,0,1.757,1,3.746,3.746,0,0,0-.142,7.235,3.755,3.755,0,0,0-1.737,1.089,3.74,3.74,0,0,0-5.314.121,3.74,3.74,0,0,0-5.434,0,3.75,3.75,0,1,0,0,5.158,3.74,3.74,0,0,0,5.434,0,3.738,3.738,0,0,0,5.5-.07,3.748,3.748,0,1,0,3.644-6.3,3.749,3.749,0,0,0,2.705-3.6" transform="translate(-204.156 -332.165)" fill="#fff"/><path d="M159.02,508.672a3.75,3.75,0,1,1-3.75-3.75,3.749,3.749,0,0,1,3.75,3.75" transform="translate(-151.521 -475.099)" fill="#fff"/><path d="M572.166,267.28a3.738,3.738,0,0,1-5.607,0,3.737,3.737,0,0,1-5.467,0,5.29,5.29,0,0,0,8.27,6.234,3.748,3.748,0,1,0,2.8-6.234" transform="translate(-519.602 -259.557)" fill="#fff"/><path d="M813.269,224.109a3.737,3.737,0,0,1-5.607,0,3.737,3.737,0,0,1-5.467,0,3.17,3.17,0,0,1-4.911.322,3.745,3.745,0,0,0-.008-7.413,3.745,3.745,0,0,0,.372-7.341,2.778,2.778,0,0,1,4.371-.018,3.738,3.738,0,0,1,5.467,0,3.739,3.739,0,0,1,5.607,0,5.373,5.373,0,0,0-8.341-6.31,8.415,8.415,0,0,1-7.379-1,3.746,3.746,0,0,0-.269-7.365,3.75,3.75,0,1,0-1.084,0,3.745,3.745,0,0,0-.089,7.4,3.746,3.746,0,0,0-.1,7.294,3.744,3.744,0,0,0,.372,7.341,3.745,3.745,0,0,0-.009,7.413,5.517,5.517,0,0,0,8.729,5.989,9.936,9.936,0,0,1,8.341,1.188,3.75,3.75,0,0,0,0-7.5" transform="translate(-733.175 -187.221)" fill="#fff"/><path d="M1033.9,430.068a3.68,3.68,0,1,0-1.421,0,3.679,3.679,0,1,0,1.421,0" transform="translate(-947.86 -400.595)" fill="#fff"/><path d="M509.063,357.734a3.72,3.72,0,0,0-3-3.649,3.72,3.72,0,1,0-1.436,0,3.72,3.72,0,0,0-.036,7.292,3.719,3.719,0,0,0,.036,7.291,3.719,3.719,0,1,0,1.436,0,3.719,3.719,0,0,0,.036-7.291,3.721,3.721,0,0,0,2.965-3.643" transform="translate(-469.066 -331.606)" fill="#fff"/><path d="M1227.122,184.232h1.953l4.038,10.484h-1.967l-.984-2.775h-4.185l-.984,2.775H1223.1Zm-.646,6.314h3.2l-1.571-4.508h-.044Z" transform="translate(-1123.446 -184.232)" fill="#fff"/><path d="M1338.2,213.337h1.571v1.469h.029a1.7,1.7,0,0,1,.286-.6,2.8,2.8,0,0,1,.514-.536,2.6,2.6,0,0,1,.668-.389,2.008,2.008,0,0,1,.749-.146,3.841,3.841,0,0,1,.4.014c.074.01.149.02.228.029v1.615q-.176-.028-.36-.051a3.119,3.119,0,0,0-.359-.022,1.925,1.925,0,0,0-.8.169,1.841,1.841,0,0,0-.653.5,2.444,2.444,0,0,0-.44.815,3.521,3.521,0,0,0-.162,1.116v3.612H1338.2Z" transform="translate(-1227.841 -210.444)" fill="#fff"/><path d="M1391.687,215.877a1.571,1.571,0,0,0-.565-1.064,1.842,1.842,0,0,0-1.167-.36,2.409,2.409,0,0,0-.69.11,1.633,1.633,0,0,0-.675.411,2.3,2.3,0,0,0-.514.837,3.973,3.973,0,0,0-.206,1.4,4.1,4.1,0,0,0,.11.94,2.561,2.561,0,0,0,.353.837,1.905,1.905,0,0,0,.624.595,1.772,1.772,0,0,0,.925.227,1.684,1.684,0,0,0,1.211-.455,2.116,2.116,0,0,0,.595-1.277h1.674a3.671,3.671,0,0,1-1.123,2.268,3.424,3.424,0,0,1-2.357.786,3.893,3.893,0,0,1-1.578-.3,3.346,3.346,0,0,1-1.153-.823,3.489,3.489,0,0,1-.712-1.241,4.85,4.85,0,0,1-.242-1.556,5.3,5.3,0,0,1,.235-1.6,3.659,3.659,0,0,1,.7-1.3,3.3,3.3,0,0,1,1.168-.866,3.938,3.938,0,0,1,1.637-.315,4.582,4.582,0,0,1,1.255.169,3.308,3.308,0,0,1,1.057.506,2.693,2.693,0,0,1,.756.851,2.924,2.924,0,0,1,.352,1.219Z" transform="translate(-1271.375 -210.443)" fill="#fff"/><path d="M1477.14,184.232h1.674v3.891h.03a2.439,2.439,0,0,1,.918-.859,2.715,2.715,0,0,1,1.358-.345,2.838,2.838,0,0,1,1.968.646,2.475,2.475,0,0,1,.719,1.938v5.213h-1.674v-4.772a2.065,2.065,0,0,0-.381-1.3,1.386,1.386,0,0,0-1.1-.4,1.821,1.821,0,0,0-.763.154,1.662,1.662,0,0,0-.573.426,2.018,2.018,0,0,0-.367.639,2.285,2.285,0,0,0-.132.778v4.478h-1.674Z" transform="translate(-1353.862 -184.232)" fill="#fff"/><path d="M1567.451,184.232h1.674v1.586h-1.674Zm0,2.893h1.674v7.591h-1.674Z" transform="translate(-1435.774 -184.232)" fill="#fff"/><path d="M1596.027,193.146h1.263V190.87h1.674v2.276h1.512v1.248h-1.512v4.053a3.992,3.992,0,0,0,.022.455.783.783,0,0,0,.1.323.491.491,0,0,0,.242.2,1.2,1.2,0,0,0,.44.066q.176,0,.352-.007a1.778,1.778,0,0,0,.352-.052v1.293l-.543.058a4.915,4.915,0,0,1-.544.03,3.72,3.72,0,0,1-1.065-.124,1.42,1.42,0,0,1-.631-.367,1.266,1.266,0,0,1-.308-.61,4.538,4.538,0,0,1-.1-.837v-4.478h-1.263Z" transform="translate(-1461.693 -190.253)" fill="#fff"/><path d="M1653.754,217.566a2.92,2.92,0,0,0,.125.851,2.1,2.1,0,0,0,.375.719,1.8,1.8,0,0,0,.631.492,2.084,2.084,0,0,0,.91.183,2.012,2.012,0,0,0,1.182-.316,1.867,1.867,0,0,0,.668-.947h1.586a3.147,3.147,0,0,1-1.234,1.916,3.359,3.359,0,0,1-1.02.5,4.117,4.117,0,0,1-1.182.168,4.012,4.012,0,0,1-1.586-.294,3.264,3.264,0,0,1-1.167-.822,3.487,3.487,0,0,1-.72-1.263,5.134,5.134,0,0,1-.242-1.616,4.575,4.575,0,0,1,.257-1.534,3.917,3.917,0,0,1,.734-1.277,3.443,3.443,0,0,1,2.68-1.2,3.4,3.4,0,0,1,1.608.374,3.54,3.54,0,0,1,1.182.991,4.011,4.011,0,0,1,.683,1.417,4.349,4.349,0,0,1,.11,1.652Zm3.906-1.1a2.7,2.7,0,0,0-.169-.763,2.052,2.052,0,0,0-.382-.639,1.9,1.9,0,0,0-.587-.44,1.733,1.733,0,0,0-.771-.169,2.016,2.016,0,0,0-.8.154,1.831,1.831,0,0,0-.616.426,2.124,2.124,0,0,0-.411.639,2.218,2.218,0,0,0-.169.793Z" transform="translate(-1512.533 -210.444)" fill="#fff"/><path d="M1744.567,215.877a1.573,1.573,0,0,0-.565-1.064,1.844,1.844,0,0,0-1.167-.36,2.411,2.411,0,0,0-.69.11,1.633,1.633,0,0,0-.675.411,2.3,2.3,0,0,0-.514.837,3.971,3.971,0,0,0-.206,1.4,4.1,4.1,0,0,0,.11.94,2.564,2.564,0,0,0,.353.837,1.907,1.907,0,0,0,.624.595,1.772,1.772,0,0,0,.925.227,1.684,1.684,0,0,0,1.211-.455,2.117,2.117,0,0,0,.595-1.277h1.674a3.672,3.672,0,0,1-1.123,2.268,3.423,3.423,0,0,1-2.356.786,3.894,3.894,0,0,1-1.578-.3,3.346,3.346,0,0,1-1.153-.823,3.487,3.487,0,0,1-.712-1.241,4.837,4.837,0,0,1-.242-1.556,5.3,5.3,0,0,1,.235-1.6,3.654,3.654,0,0,1,.7-1.3,3.3,3.3,0,0,1,1.167-.866,3.938,3.938,0,0,1,1.637-.315,4.583,4.583,0,0,1,1.255.169,3.309,3.309,0,0,1,1.057.506,2.692,2.692,0,0,1,.756.851,2.924,2.924,0,0,1,.352,1.219Z" transform="translate(-1591.438 -210.443)" fill="#fff"/><path d="M1821.81,193.146h1.263V190.87h1.674v2.276h1.512v1.248h-1.512v4.053a4.012,4.012,0,0,0,.022.455.779.779,0,0,0,.1.323.491.491,0,0,0,.242.2,1.2,1.2,0,0,0,.441.066q.177,0,.352-.007a1.769,1.769,0,0,0,.352-.052v1.293l-.543.058a4.9,4.9,0,0,1-.543.03,3.716,3.716,0,0,1-1.064-.124,1.419,1.419,0,0,1-.632-.367,1.273,1.273,0,0,1-.308-.61,4.561,4.561,0,0,1-.1-.837v-4.478h-1.263Z" transform="translate(-1666.479 -190.253)" fill="#fff"/><path d="M1879.062,218.491a1.259,1.259,0,0,0,.558,1.028,2.19,2.19,0,0,0,1.16.294,4.53,4.53,0,0,0,.536-.036,2.346,2.346,0,0,0,.566-.139,1.063,1.063,0,0,0,.433-.3.723.723,0,0,0,.154-.521.739.739,0,0,0-.235-.528,1.628,1.628,0,0,0-.565-.331,5.5,5.5,0,0,0-.785-.213q-.441-.088-.9-.191a8.186,8.186,0,0,1-.9-.25,2.874,2.874,0,0,1-.778-.4,1.822,1.822,0,0,1-.551-.638,2.044,2.044,0,0,1-.205-.962,1.725,1.725,0,0,1,.3-1.035,2.31,2.31,0,0,1,.764-.675,3.332,3.332,0,0,1,1.028-.36,6.1,6.1,0,0,1,1.079-.1,4.949,4.949,0,0,1,1.123.124,3.071,3.071,0,0,1,.969.4,2.379,2.379,0,0,1,.72.727,2.524,2.524,0,0,1,.36,1.079h-1.748a1.043,1.043,0,0,0-.551-.807,2.293,2.293,0,0,0-.991-.205,3.5,3.5,0,0,0-.419.03,1.954,1.954,0,0,0-.455.11.956.956,0,0,0-.359.235.561.561,0,0,0-.147.4.639.639,0,0,0,.214.5,1.692,1.692,0,0,0,.56.315,5.55,5.55,0,0,0,.787.213q.442.089.913.191t.9.25a2.917,2.917,0,0,1,.787.4,1.93,1.93,0,0,1,.56.632,1.9,1.9,0,0,1,.214.94,2.037,2.037,0,0,1-.309,1.145,2.433,2.433,0,0,1-.8.764,3.623,3.623,0,0,1-1.1.426,5.541,5.541,0,0,1-1.192.132,5.182,5.182,0,0,1-1.332-.162,3.1,3.1,0,0,1-1.059-.491,2.375,2.375,0,0,1-.706-.823,2.6,2.6,0,0,1-.272-1.168Z" transform="translate(-1716.888 -210.444)" fill="#fff"/><path d="M1223.1,364.321h5.007a3.883,3.883,0,0,1,2.6.749,2.608,2.608,0,0,1,.866,2.085,3.044,3.044,0,0,1-.22,1.241,2.714,2.714,0,0,1-.514.793,2.014,2.014,0,0,1-.58.433q-.286.132-.418.177v.029a1.9,1.9,0,0,1,.506.147,1.5,1.5,0,0,1,.507.374,2.05,2.05,0,0,1,.389.668,2.957,2.957,0,0,1,.154,1.028,9.28,9.28,0,0,0,.14,1.681,2.206,2.206,0,0,0,.433,1.079H1230a1.7,1.7,0,0,1-.242-.749q-.037-.411-.037-.793a7.556,7.556,0,0,0-.088-1.241,2.168,2.168,0,0,0-.323-.866,1.374,1.374,0,0,0-.639-.506,2.816,2.816,0,0,0-1.035-.161h-2.7v4.317H1223.1Zm1.835,4.773h3.01a1.909,1.909,0,0,0,1.336-.419,1.623,1.623,0,0,0,.455-1.255,1.947,1.947,0,0,0-.147-.815,1.189,1.189,0,0,0-.4-.492,1.48,1.48,0,0,0-.587-.235,3.9,3.9,0,0,0-.683-.059h-2.981Z" transform="translate(-1123.448 -347.573)" fill="#fff"/><path d="M1328.665,397.654a2.909,2.909,0,0,0,.125.851,2.093,2.093,0,0,0,.374.719,1.8,1.8,0,0,0,.631.492,2.087,2.087,0,0,0,.911.183,2.011,2.011,0,0,0,1.182-.315,1.867,1.867,0,0,0,.668-.947h1.586a3.148,3.148,0,0,1-1.234,1.916,3.358,3.358,0,0,1-1.02.5,4.113,4.113,0,0,1-1.182.168,4.011,4.011,0,0,1-1.586-.294,3.267,3.267,0,0,1-1.167-.822,3.486,3.486,0,0,1-.72-1.262,5.135,5.135,0,0,1-.242-1.616,4.568,4.568,0,0,1,.257-1.534,3.915,3.915,0,0,1,.734-1.277,3.445,3.445,0,0,1,2.68-1.2,3.4,3.4,0,0,1,1.608.374,3.544,3.544,0,0,1,1.182.991,4.022,4.022,0,0,1,.682,1.418,4.342,4.342,0,0,1,.11,1.652Zm3.906-1.1a2.7,2.7,0,0,0-.169-.763,2.054,2.054,0,0,0-.382-.639,1.9,1.9,0,0,0-.587-.44,1.733,1.733,0,0,0-.771-.169,2.017,2.017,0,0,0-.8.154,1.831,1.831,0,0,0-.617.426,2.127,2.127,0,0,0-.411.639,2.225,2.225,0,0,0-.169.792Z" transform="translate(-1217.676 -373.784)" fill="#fff"/><path d="M1421.373,400.62a3.232,3.232,0,0,1-.962,2.562,4.073,4.073,0,0,1-2.768.844,5.828,5.828,0,0,1-1.152-.117,3.44,3.44,0,0,1-1.057-.4,2.556,2.556,0,0,1-.8-.734,2.23,2.23,0,0,1-.382-1.116h1.674a1.344,1.344,0,0,0,.249.573,1.283,1.283,0,0,0,.419.345,1.583,1.583,0,0,0,.536.161,5.022,5.022,0,0,0,.617.037,1.952,1.952,0,0,0,1.483-.5,2.023,2.023,0,0,0,.47-1.438v-1.16h-.029a2.545,2.545,0,0,1-.962.983,2.58,2.58,0,0,1-1.314.353,3.463,3.463,0,0,1-1.549-.315,2.952,2.952,0,0,1-1.057-.866,3.6,3.6,0,0,1-.609-1.27,5.99,5.99,0,0,1-.191-1.542,4.482,4.482,0,0,1,.235-1.453,3.7,3.7,0,0,1,.675-1.211,3.235,3.235,0,0,1,1.079-.83,3.288,3.288,0,0,1,1.446-.308,2.913,2.913,0,0,1,1.322.3,2.044,2.044,0,0,1,.925.947h.029v-1.043h1.674Zm-3.715-.925a1.839,1.839,0,0,0,.947-.228,1.862,1.862,0,0,0,.631-.6,2.647,2.647,0,0,0,.353-.852,4.241,4.241,0,0,0,.11-.961,3.763,3.763,0,0,0-.117-.94,2.529,2.529,0,0,0-.36-.807,1.737,1.737,0,0,0-.631-.559,1.977,1.977,0,0,0-.932-.205,1.765,1.765,0,0,0-.94.235,1.879,1.879,0,0,0-.617.61,2.612,2.612,0,0,0-.338.851,4.47,4.47,0,0,0-.1.947,3.585,3.585,0,0,0,.118.918,2.522,2.522,0,0,0,.36.8,1.908,1.908,0,0,0,.617.573,1.747,1.747,0,0,0,.9.22" transform="translate(-1296.582 -373.784)" fill="#fff"/><path d="M1511.249,364.321h1.674v1.586h-1.674Zm0,2.893h1.674v7.591h-1.674Z" transform="translate(-1384.799 -347.573)" fill="#fff"/><path d="M1545.286,398.579a1.261,1.261,0,0,0,.558,1.028,2.193,2.193,0,0,0,1.16.294,4.555,4.555,0,0,0,.537-.036,2.366,2.366,0,0,0,.565-.14,1.073,1.073,0,0,0,.433-.3.724.724,0,0,0,.154-.521.741.741,0,0,0-.235-.528,1.637,1.637,0,0,0-.565-.331,5.517,5.517,0,0,0-.786-.213q-.44-.088-.9-.191a8.226,8.226,0,0,1-.9-.25,2.9,2.9,0,0,1-.778-.4,1.82,1.82,0,0,1-.55-.638,2.038,2.038,0,0,1-.206-.962,1.725,1.725,0,0,1,.3-1.035,2.3,2.3,0,0,1,.764-.675,3.322,3.322,0,0,1,1.028-.36,6.094,6.094,0,0,1,1.079-.1,4.958,4.958,0,0,1,1.123.125,3.078,3.078,0,0,1,.969.4,2.378,2.378,0,0,1,.719.727,2.525,2.525,0,0,1,.36,1.079h-1.747a1.043,1.043,0,0,0-.551-.807,2.29,2.29,0,0,0-.991-.205,3.534,3.534,0,0,0-.419.03,1.949,1.949,0,0,0-.455.11.95.95,0,0,0-.359.235.561.561,0,0,0-.147.4.638.638,0,0,0,.214.5,1.7,1.7,0,0,0,.56.315,5.516,5.516,0,0,0,.788.213q.442.088.912.191c.3.069.6.152.9.25a2.932,2.932,0,0,1,.788.4,1.94,1.94,0,0,1,.559.632,1.9,1.9,0,0,1,.213.94,2.037,2.037,0,0,1-.309,1.145,2.435,2.435,0,0,1-.8.764,3.625,3.625,0,0,1-1.1.426,5.543,5.543,0,0,1-1.192.132,5.178,5.178,0,0,1-1.331-.162,3.1,3.1,0,0,1-1.059-.491,2.367,2.367,0,0,1-.707-.823,2.606,2.606,0,0,1-.272-1.168Z" transform="translate(-1414.152 -373.785)" fill="#fff"/><path d="M1620.975,373.235h1.263V370.96h1.674v2.275h1.512v1.248h-1.512v4.053a3.934,3.934,0,0,0,.022.455.782.782,0,0,0,.1.323.491.491,0,0,0,.242.2,1.2,1.2,0,0,0,.441.066c.117,0,.235,0,.352-.007a1.781,1.781,0,0,0,.353-.052v1.293l-.543.058a4.873,4.873,0,0,1-.543.03,3.719,3.719,0,0,1-1.065-.124,1.419,1.419,0,0,1-.631-.367,1.265,1.265,0,0,1-.309-.61,4.551,4.551,0,0,1-.1-.837v-4.478h-1.263Z" transform="translate(-1484.32 -353.595)" fill="#fff"/><path d="M1680.979,393.425h1.57v1.469h.03a1.689,1.689,0,0,1,.287-.6,2.763,2.763,0,0,1,.514-.536,2.585,2.585,0,0,1,.668-.389,2.007,2.007,0,0,1,.749-.146,3.84,3.84,0,0,1,.4.014c.073.01.149.02.228.029v1.615c-.117-.019-.238-.036-.36-.051a3.119,3.119,0,0,0-.36-.022,1.925,1.925,0,0,0-.8.169,1.838,1.838,0,0,0-.653.5,2.444,2.444,0,0,0-.44.815,3.522,3.522,0,0,0-.161,1.116v3.612h-1.674Z" transform="translate(-1538.745 -373.785)" fill="#fff"/><path d="M1738.111,399.328a.89.89,0,0,0,.081.44.34.34,0,0,0,.316.132h.177a1.061,1.061,0,0,0,.235-.029v1.16c-.059.019-.134.041-.228.066s-.188.046-.286.066-.2.034-.294.044-.181.014-.25.014a1.617,1.617,0,0,1-.851-.205,1.02,1.02,0,0,1-.441-.719,2.961,2.961,0,0,1-1.227.7,4.835,4.835,0,0,1-1.4.22,3.439,3.439,0,0,1-.983-.139,2.584,2.584,0,0,1-.829-.411,1.969,1.969,0,0,1-.573-.69,2.122,2.122,0,0,1-.213-.976,2.255,2.255,0,0,1,.257-1.146,1.9,1.9,0,0,1,.675-.69,3.041,3.041,0,0,1,.94-.36q.522-.11,1.05-.169a8.438,8.438,0,0,1,.866-.125,4.026,4.026,0,0,0,.727-.125,1.1,1.1,0,0,0,.5-.272.748.748,0,0,0,.183-.55.86.86,0,0,0-.154-.529,1.032,1.032,0,0,0-.382-.315,1.648,1.648,0,0,0-.506-.146,4,4,0,0,0-.529-.037,2.106,2.106,0,0,0-1.16.294,1.148,1.148,0,0,0-.514.91h-1.674a2.527,2.527,0,0,1,.352-1.219,2.447,2.447,0,0,1,.786-.778,3.224,3.224,0,0,1,1.079-.411,6.416,6.416,0,0,1,1.234-.118,5.188,5.188,0,0,1,1.1.118,3.147,3.147,0,0,1,.977.381,2.123,2.123,0,0,1,.7.683,1.878,1.878,0,0,1,.264,1.02Zm-1.674-2.115a2.033,2.033,0,0,1-.94.3q-.558.051-1.116.154a3.666,3.666,0,0,0-.514.124,1.545,1.545,0,0,0-.44.221.967.967,0,0,0-.3.368,1.245,1.245,0,0,0-.11.55.7.7,0,0,0,.161.47,1.17,1.17,0,0,0,.389.3,1.813,1.813,0,0,0,.5.154,3.092,3.092,0,0,0,.492.044,2.721,2.721,0,0,0,.6-.073,2,2,0,0,0,.609-.25,1.6,1.6,0,0,0,.477-.447,1.138,1.138,0,0,0,.191-.668Z" transform="translate(-1584.424 -373.785)" fill="#fff"/><path d="M1814.548,373.235h1.263V370.96h1.674v2.275H1819v1.248h-1.512v4.053a4.2,4.2,0,0,0,.022.455.782.782,0,0,0,.1.323.491.491,0,0,0,.242.2,1.2,1.2,0,0,0,.44.066c.118,0,.235,0,.353-.007a1.773,1.773,0,0,0,.352-.052v1.293l-.543.058a4.854,4.854,0,0,1-.543.03,3.714,3.714,0,0,1-1.064-.124,1.418,1.418,0,0,1-.632-.367,1.272,1.272,0,0,1-.308-.61,4.559,4.559,0,0,1-.1-.837v-4.478h-1.263Z" transform="translate(-1659.892 -353.595)" fill="#fff"/><path d="M1875.016,364.321h1.674v1.586h-1.674Zm0,2.893h1.674v7.591h-1.674Z" transform="translate(-1714.736 -347.573)" fill="#fff"/><path d="M1911.851,401.221a4.146,4.146,0,0,1-1.623-.3,3.462,3.462,0,0,1-1.2-.83,3.55,3.55,0,0,1-.749-1.263,5.166,5.166,0,0,1,0-3.216,3.558,3.558,0,0,1,.749-1.263,3.465,3.465,0,0,1,1.2-.829,4.521,4.521,0,0,1,3.245,0,3.463,3.463,0,0,1,1.2.829,3.558,3.558,0,0,1,.749,1.263,5.157,5.157,0,0,1,0,3.216,3.55,3.55,0,0,1-.749,1.263,3.46,3.46,0,0,1-1.2.83,4.149,4.149,0,0,1-1.623.3m0-1.322a1.918,1.918,0,0,0,.969-.235,2.044,2.044,0,0,0,.676-.617,2.7,2.7,0,0,0,.389-.859,3.841,3.841,0,0,0,0-1.946,2.6,2.6,0,0,0-.389-.859,2.082,2.082,0,0,0-.676-.61,2.117,2.117,0,0,0-1.938,0,2.062,2.062,0,0,0-.675.61,2.577,2.577,0,0,0-.39.859,3.863,3.863,0,0,0,0,1.946,2.677,2.677,0,0,0,.39.859,2.025,2.025,0,0,0,.675.617,1.917,1.917,0,0,0,.969.235" transform="translate(-1744.671 -373.784)" fill="#fff"/><path d="M2004.64,393.425h1.586v1.116l.03.03a2.8,2.8,0,0,1,1-.991,2.656,2.656,0,0,1,1.365-.36,2.838,2.838,0,0,1,1.968.646,2.475,2.475,0,0,1,.719,1.938v5.213h-1.674v-4.772a2.066,2.066,0,0,0-.381-1.3,1.388,1.388,0,0,0-1.1-.4,1.818,1.818,0,0,0-.763.154,1.653,1.653,0,0,0-.573.426,2,2,0,0,0-.367.639,2.276,2.276,0,0,0-.133.778v4.478h-1.674Z" transform="translate(-1832.306 -373.785)" fill="#fff"/><path d="M1223.1,548.949h5.1a3.648,3.648,0,0,1,2.261.647,2.294,2.294,0,0,1,.851,1.952,2.34,2.34,0,0,1-.389,1.359,2.5,2.5,0,0,1-1.109.873v.029a2.291,2.291,0,0,1,1.468.918,3.036,3.036,0,0,1,.5,1.784,3,3,0,0,1-.22,1.153,2.346,2.346,0,0,1-.69.924,3.481,3.481,0,0,1-1.2.617,5.911,5.911,0,0,1-1.747.228H1223.1Zm1.835,4.391h3a1.647,1.647,0,0,0,1.1-.374,1.339,1.339,0,0,0,.44-1.079,1.367,1.367,0,0,0-.4-1.116,1.775,1.775,0,0,0-1.146-.323h-3Zm0,4.6h3.245a1.831,1.831,0,0,0,1.3-.432,1.6,1.6,0,0,0,.463-1.226,1.531,1.531,0,0,0-.463-1.2,1.872,1.872,0,0,0-1.3-.418h-3.245Z" transform="translate(-1123.448 -515.031)" fill="#fff"/><path d="M1330.985,585.849a4.146,4.146,0,0,1-1.622-.3,3.468,3.468,0,0,1-1.2-.83,3.544,3.544,0,0,1-.749-1.263,5.164,5.164,0,0,1,0-3.216,3.552,3.552,0,0,1,.749-1.263,3.468,3.468,0,0,1,1.2-.829,4.523,4.523,0,0,1,3.245,0,3.465,3.465,0,0,1,1.2.829,3.557,3.557,0,0,1,.749,1.263,5.152,5.152,0,0,1,0,3.216,3.549,3.549,0,0,1-.749,1.263,3.465,3.465,0,0,1-1.2.83,4.152,4.152,0,0,1-1.623.3m0-1.321a1.915,1.915,0,0,0,.969-.235,2.044,2.044,0,0,0,.676-.617,2.7,2.7,0,0,0,.389-.859,3.841,3.841,0,0,0,0-1.946,2.594,2.594,0,0,0-.389-.859,2.082,2.082,0,0,0-.676-.61,2.117,2.117,0,0,0-1.938,0,2.065,2.065,0,0,0-.675.61,2.583,2.583,0,0,0-.39.859,3.862,3.862,0,0,0,0,1.946,2.685,2.685,0,0,0,.39.859,2.028,2.028,0,0,0,.675.617,1.916,1.916,0,0,0,.969.235" transform="translate(-1217.823 -541.242)" fill="#fff"/><path d="M1426.127,583.956a.88.88,0,0,0,.081.44.34.34,0,0,0,.315.132h.177a1.061,1.061,0,0,0,.235-.03v1.16c-.059.02-.135.042-.228.066s-.188.046-.286.066-.2.034-.294.044a2.493,2.493,0,0,1-.25.014,1.616,1.616,0,0,1-.851-.205,1.021,1.021,0,0,1-.441-.719,2.967,2.967,0,0,1-1.226.7,4.837,4.837,0,0,1-1.4.22,3.439,3.439,0,0,1-.983-.139,2.583,2.583,0,0,1-.83-.411,1.97,1.97,0,0,1-.573-.69,2.122,2.122,0,0,1-.213-.976,2.256,2.256,0,0,1,.257-1.146,1.9,1.9,0,0,1,.676-.69,3.039,3.039,0,0,1,.94-.36q.522-.11,1.05-.169a8.411,8.411,0,0,1,.866-.125,4.02,4.02,0,0,0,.727-.125,1.1,1.1,0,0,0,.5-.272.747.747,0,0,0,.183-.55.862.862,0,0,0-.154-.529,1.04,1.04,0,0,0-.382-.315,1.653,1.653,0,0,0-.506-.146,4.006,4.006,0,0,0-.529-.037,2.106,2.106,0,0,0-1.16.294,1.147,1.147,0,0,0-.514.91h-1.674a2.525,2.525,0,0,1,.352-1.219,2.448,2.448,0,0,1,.786-.778,3.229,3.229,0,0,1,1.079-.411,6.42,6.42,0,0,1,1.234-.118,5.188,5.188,0,0,1,1.1.118,3.155,3.155,0,0,1,.977.381,2.129,2.129,0,0,1,.7.683,1.878,1.878,0,0,1,.264,1.02Zm-1.674-2.115a2.038,2.038,0,0,1-.94.3q-.558.051-1.116.154a3.673,3.673,0,0,0-.514.125,1.565,1.565,0,0,0-.441.22.975.975,0,0,0-.3.368,1.245,1.245,0,0,0-.11.55.7.7,0,0,0,.162.47,1.17,1.17,0,0,0,.389.3,1.808,1.808,0,0,0,.5.154,3.07,3.07,0,0,0,.492.044,2.719,2.719,0,0,0,.6-.073,2,2,0,0,0,.61-.25,1.6,1.6,0,0,0,.477-.448,1.137,1.137,0,0,0,.191-.668Z" transform="translate(-1301.453 -541.243)" fill="#fff"/><path d="M1510.776,578.053h1.57v1.469h.03a1.7,1.7,0,0,1,.287-.6,2.8,2.8,0,0,1,.514-.536,2.6,2.6,0,0,1,.668-.39,2.011,2.011,0,0,1,.749-.146,3.839,3.839,0,0,1,.4.014c.074.01.149.02.228.029v1.615c-.117-.019-.238-.036-.36-.051a3.1,3.1,0,0,0-.36-.022,1.926,1.926,0,0,0-.8.169,1.848,1.848,0,0,0-.654.5,2.442,2.442,0,0,0-.44.815,3.515,3.515,0,0,0-.162,1.116v3.612h-1.674Z" transform="translate(-1384.37 -541.243)" fill="#fff"/><path d="M1566.289,559.433H1564.7v-1.028h-.029a1.988,1.988,0,0,1-.984.947,3.329,3.329,0,0,1-1.365.286,3.624,3.624,0,0,1-1.564-.315,3.115,3.115,0,0,1-1.109-.859,3.672,3.672,0,0,1-.661-1.284,5.58,5.58,0,0,1-.22-1.593,5.086,5.086,0,0,1,.279-1.777,3.564,3.564,0,0,1,.741-1.233,2.882,2.882,0,0,1,1.057-.712,3.384,3.384,0,0,1,1.212-.227,4.1,4.1,0,0,1,.72.066,3.2,3.2,0,0,1,.705.214,2.745,2.745,0,0,1,.623.374,2.078,2.078,0,0,1,.478.536h.029v-3.877h1.674Zm-5.844-3.715a3.675,3.675,0,0,0,.125.954,2.605,2.605,0,0,0,.381.837,1.933,1.933,0,0,0,.654.588,1.91,1.91,0,0,0,.94.22,1.877,1.877,0,0,0,.962-.235,1.994,1.994,0,0,0,.66-.617,2.778,2.778,0,0,0,.382-.859,3.85,3.85,0,0,0,.125-.977,3.065,3.065,0,0,0-.566-1.968,1.862,1.862,0,0,0-1.534-.7,1.9,1.9,0,0,0-.991.242,2.027,2.027,0,0,0-.66.632,2.6,2.6,0,0,0-.367.881,4.6,4.6,0,0,0-.11,1.006" transform="translate(-1427.901 -515.031)" fill="#fff"/></g></g></svg>