<?xml version="1.0" encoding="UTF-8"?><svg id="a" xmlns="http://www.w3.org/2000/svg" viewBox="0 0 400.73 253.42"><g><g><path d="M148.66,163.88c0,1.77-1.36,2.45-2.33,2.45-1.02,0-2.33-.68-2.33-2.45v-2.1h-.11c-2.16,3.07-5,4.55-8.25,4.55-8.53,0-13.3-7.45-13.3-15.46s4.78-15.46,13.3-15.46c3.47,0,5.91,1.48,8.25,4.04h.11v-1.59c0-1.76,1.31-2.44,2.33-2.44s2.33,.68,2.33,2.44v26.04Zm-13.02-1.88c6.14,0,8.3-6.03,8.3-11.14s-2.16-11.15-8.3-11.15-8.3,6.03-8.3,11.15,2.16,11.14,8.3,11.14Z" fill="#fff"/><path d="M162.7,135.39c4.15,0,10.06,2.22,10.06,5.34,0,1.08-.74,2.04-2.27,2.04-2.16,0-3.01-3.07-7.79-3.07-2.84,0-5.29,1.25-5.29,3.81,0,5.29,16.15,4.72,16.15,13.47,0,6.31-5.4,9.33-11.03,9.33-6.37,0-11.37-3.19-11.37-5.74,0-1.36,.97-2.27,2.05-2.27,2.22,0,4.04,3.7,9.5,3.7,3.64,0,5.86-2.04,5.86-4.1,0-5.91-16.15-5.57-16.15-13.98,0-5.57,5.23-8.53,10.29-8.53Z" fill="#fff"/><path d="M187.65,135.39c4.15,0,10.06,2.22,10.06,5.34,0,1.08-.74,2.04-2.27,2.04-2.16,0-3.02-3.07-7.79-3.07-2.84,0-5.29,1.25-5.29,3.81,0,5.29,16.15,4.72,16.15,13.47,0,6.31-5.4,9.33-11.03,9.33-6.37,0-11.37-3.19-11.37-5.74,0-1.36,.97-2.27,2.05-2.27,2.22,0,4.04,3.7,9.49,3.7,3.64,0,5.86-2.04,5.86-4.1,0-5.91-16.15-5.57-16.15-13.98,0-5.57,5.23-8.53,10.29-8.53Z" fill="#fff"/><path d="M203.46,125.16c1.71,0,3.07,1.37,3.07,3.07s-1.36,3.07-3.07,3.07-3.07-1.36-3.07-3.07,1.36-3.07,3.07-3.07Zm2.5,38.5c0,1.65-.96,2.67-2.5,2.67s-2.5-1.02-2.5-2.67v-25.59c0-1.65,.97-2.67,2.5-2.67s2.5,1.02,2.5,2.67v25.59Z" fill="#fff"/><path d="M208.52,139.77c-.34-.91-.51-1.48-.51-2.05,0-1.48,1.08-2.33,2.28-2.33,1.65,0,2.22,.79,2.62,1.93l6.88,20.92h.12l6.88-20.92c.4-1.13,.96-1.93,2.61-1.93,1.19,0,2.27,.85,2.27,2.33,0,.57-.17,1.14-.51,2.05l-8.7,24.39c-.51,1.48-1.03,2.16-2.62,2.16s-2.1-.68-2.62-2.16l-8.7-24.39Z" fill="#fff"/><path d="M252.75,147.16c0-5.29-3.7-7.45-7-7.45s-6.99,2.16-6.99,7.45v16.49c0,1.65-.97,2.67-2.5,2.67s-2.5-1.02-2.5-2.67v-38.89c0-1.65,.97-2.67,2.5-2.67s2.5,1.02,2.5,2.67v14.5l.11,.11c2.22-2.84,5.35-3.98,8.36-3.98,4.66,0,10.52,2.96,10.52,11.48v16.77c0,1.65-.97,2.67-2.5,2.67s-2.5-1.02-2.5-2.67v-16.49Z" fill="#fff"/><path d="M286.05,163.88c0,1.77-1.37,2.45-2.33,2.45-1.02,0-2.33-.68-2.33-2.45v-2.1h-.12c-2.16,3.07-5,4.55-8.24,4.55-8.53,0-13.3-7.45-13.3-15.46s4.78-15.46,13.3-15.46c3.47,0,5.91,1.48,8.24,4.04h.12v-1.59c0-1.76,1.31-2.44,2.33-2.44,.97,0,2.33,.68,2.33,2.44v26.04Zm-13.02-1.88c6.14,0,8.3-6.03,8.3-11.14s-2.16-11.15-8.3-11.15-8.3,6.03-8.3,11.15,2.16,11.14,8.3,11.14Z" fill="#fff"/><path d="M288.97,138.06c0-1.65,.97-2.67,2.5-2.67s2.5,1.02,2.5,2.67v16.04c0,5.17,2.27,7.9,6.99,7.9s6.99-2.73,6.99-7.9v-16.04c0-1.65,.96-2.67,2.5-2.67s2.5,1.02,2.5,2.67v16.2c0,8.87-5.91,12.06-12,12.06s-12-3.19-12-12.06v-16.2Z" fill="#fff"/><path d="M326.36,135.39c4.15,0,10.06,2.22,10.06,5.34,0,1.08-.74,2.04-2.27,2.04-2.16,0-3.01-3.07-7.79-3.07-2.84,0-5.29,1.25-5.29,3.81,0,5.29,16.15,4.72,16.15,13.47,0,6.31-5.4,9.33-11.03,9.33-6.37,0-11.37-3.19-11.37-5.74,0-1.36,.97-2.27,2.05-2.27,2.22,0,4.04,3.7,9.49,3.7,3.64,0,5.86-2.04,5.86-4.1,0-5.91-16.15-5.57-16.15-13.98,0-5.57,5.23-8.53,10.29-8.53Z" fill="#fff"/><path d="M101.92,182.64h-7.56c-1.42,0-2.45-.74-2.45-2.33s1.02-2.33,2.45-2.33h20.13c1.42,0,2.44,.74,2.44,2.33s-1.02,2.33-2.44,2.33h-7.56v33.49c0,1.65-.97,2.67-2.5,2.67s-2.5-1.03-2.5-2.67v-33.49Z" fill="#fff"/><path d="M114.32,190.55c0-1.65,.97-2.67,2.5-2.67s2.5,1.02,2.5,2.67v2.56h.11c1.14-2.33,3.92-5.23,6.82-5.23,1.76,0,2.79,1.13,2.79,2.56s-1.02,2.33-3.13,2.73c-2.96,.51-6.6,2.73-6.6,8.58v14.38c0,1.65-.97,2.67-2.5,2.67s-2.5-1.03-2.5-2.67v-25.59Z" fill="#fff"/><path d="M130.94,190.55c0-1.65,.97-2.67,2.5-2.67s2.5,1.02,2.5,2.67v16.03c0,5.18,2.27,7.9,6.99,7.9s6.99-2.73,6.99-7.9v-16.03c0-1.65,.97-2.67,2.5-2.67s2.5,1.02,2.5,2.67v16.2c0,8.87-5.91,12.06-12,12.06s-12-3.19-12-12.06v-16.2Z" fill="#fff"/><path d="M167.99,187.88c4.15,0,10.06,2.22,10.06,5.34,0,1.08-.74,2.05-2.27,2.05-2.16,0-3.01-3.07-7.79-3.07-2.84,0-5.29,1.25-5.29,3.81,0,5.29,16.15,4.72,16.15,13.47,0,6.31-5.4,9.33-11.03,9.33-6.37,0-11.37-3.19-11.37-5.74,0-1.36,.97-2.27,2.05-2.27,2.22,0,4.04,3.7,9.5,3.7,3.64,0,5.86-2.04,5.86-4.1,0-5.91-16.15-5.57-16.15-13.98,0-5.57,5.23-8.53,10.29-8.53Z" fill="#fff"/><path d="M184.08,181.68c0-1.65,.96-2.67,2.5-2.67s2.5,1.02,2.5,2.67v6.54h2.05c1.65,0,2.5,.8,2.5,2.16s-.85,2.16-2.5,2.16h-2.05v23.6c0,1.65-.97,2.67-2.5,2.67s-2.5-1.03-2.5-2.67v-23.6h-2.05c-1.65,0-2.5-.79-2.5-2.16s.85-2.16,2.5-2.16h2.05v-6.54Z" fill="#fff"/></g><path d="M177,41.11L127.49,2.3c-1.89-1.48-4.31-2.3-6.81-2.3s-4.91,.82-6.81,2.3l-49.51,38.81c-3.02,2.37-5.13,6.7-5.13,10.54V117.71c0,5.62,4.57,10.19,10.2,10.19h26.96v29.13c0,12.62,15.78,12.07,15.78,0v-29.13h9.96c19.81,0,31.64-10.16,31.64-27.18,0-12.34-5.8-27.05-33.45-27.05h-23.92v39.91h-22.82V52.11L120.68,15.19l47.1,36.92V120.63c0,3.95,3.22,7.17,7.17,7.17s7.17-3.21,7.17-7.17V51.65c0-3.84-2.11-8.17-5.13-10.54Zm-39.73,59.48c0,9.57-8.09,12.97-15.02,12.97h-10.08v-25.58h8.39c4.65,0,16.71,2.27,16.71,12.61Z" fill="#fff"/></g><g><path d="M288.42,198.76c0-1.79-1.04-3.08-3.22-3.08h-2.88v6.3h2.8c2.1,0,3.3-1.4,3.3-3.22Z" fill="#fff"/><path d="M315.72,199.1c0-1.85-1.46-3.42-3.75-3.42h-3.3v7.08h3.36c2.58,0,3.7-1.09,3.7-3.67Z" fill="#fff"/><path d="M285.9,204h-3.58v7.36h3.47c2.41,0,4.17-1.48,4.17-3.7,0-2.04-1.48-3.67-4.06-3.67Z" fill="#fff"/><path d="M331.77,187.88h-123.74c-2.72,0-5.38,2.64-5.38,5.4v20.13c0,2.79,2.67,5.4,5.34,5.4h123.61c3.15,0,5.62-2.69,5.62-5.49v-19.91c0-2.4-2.08-5.52-5.45-5.52Zm-89.6,25.78c-.64,0-1.21-.2-1.32-1.06l-2.32-16.02h-.06l-4.76,16.07c-.25,.81-.7,1.01-1.26,1.01s-1.01-.2-1.26-1.01l-4.76-16.07h-.06l-2.32,16.02c-.11,.87-.67,1.06-1.32,1.06-.76,0-1.15-.5-1.15-1.26,0-.28,.06-.64,.14-1.12l2.72-16.02c.25-1.4,1.04-1.88,1.93-1.88,.98,0,1.51,.36,1.79,1.29l4.26,14.59h.06l4.26-14.59c.28-.92,.81-1.29,1.79-1.29,.9,0,1.68,.48,1.93,1.88l2.72,16.02c.08,.48,.14,.84,.14,1.12,0,.76-.39,1.26-1.15,1.26Zm10.89-11.28c.7,0,1.2,.36,1.2,1.15s-.5,1.15-1.2,1.15h-5.4v6.52h5.94c.7,0,1.2,.36,1.2,1.15s-.5,1.15-1.2,1.15h-7.08c-.92,0-1.32-.59-1.32-1.34v-17.25c0-.76,.39-1.34,1.32-1.34h7.08c.7,0,1.2,.36,1.2,1.15s-.5,1.15-1.2,1.15h-5.94v6.52h5.4Zm23.77,11.28c-.64,0-1.2-.2-1.32-1.06l-2.32-16.02h-.06l-4.76,16.07c-.25,.81-.7,1.01-1.26,1.01s-1.01-.2-1.26-1.01l-4.76-16.07h-.06l-2.32,16.02c-.11,.87-.67,1.06-1.32,1.06-.76,0-1.15-.5-1.15-1.26,0-.28,.06-.64,.14-1.12l2.72-16.02c.25-1.4,1.04-1.88,1.93-1.88,.98,0,1.51,.36,1.79,1.29l4.26,14.59h.06l4.26-14.59c.28-.92,.81-1.29,1.79-1.29,.9,0,1.68,.48,1.93,1.88l2.72,16.02c.08,.48,.14,.84,.14,1.12,0,.76-.39,1.26-1.15,1.26Zm9.07-.17h-4.73c-.92,0-1.32-.59-1.32-1.34v-17.25c0-.76,.39-1.34,1.32-1.34h4.34c3.53,0,5.38,2.49,5.38,4.76s-1.15,3.86-2.77,4.37v.06c2.41,.25,4.31,2.3,4.31,4.93,0,3.14-2.32,5.82-6.52,5.82Zm16.3-11.12c.7,0,1.2,.36,1.2,1.15s-.5,1.15-1.2,1.15h-5.4v6.52h5.94c.7,0,1.2,.36,1.2,1.15s-.5,1.15-1.2,1.15h-7.08c-.92,0-1.32-.59-1.32-1.34v-17.25c0-.76,.39-1.34,1.32-1.34h7.08c.7,0,1.2,.36,1.2,1.15s-.5,1.15-1.2,1.15h-5.94v6.52h5.4Zm15.2,11.28c-.5,0-.84-.25-1.12-.56l-7.62-8.34v7.59c0,.81-.48,1.32-1.23,1.32s-1.23-.5-1.23-1.32v-17.44c0-.76,.39-1.34,1.32-1.34h4.56c3.14,0,6.11,2.13,6.11,5.38,0,4.03-2.46,5.54-5.43,5.66l-1.06,.03,6.36,6.97c.34,.36,.48,.67,.48,1.12,0,.53-.51,.95-1.12,.95Z" fill="#fff"/></g><g><path d="M63.23,235.86h-2.76c-.52,0-.89-.27-.89-.85s.37-.85,.89-.85h7.35c.52,0,.89,.27,.89,.85s-.37,.85-.89,.85h-2.76v12.22c0,.6-.35,.98-.91,.98s-.91-.38-.91-.98v-12.22Z" fill="#fff"/><path d="M76.05,242.07c0-1.93-1.35-2.72-2.55-2.72s-2.55,.79-2.55,2.72v6.02c0,.6-.35,.98-.91,.98s-.91-.38-.91-.98v-14.19c0-.6,.35-.98,.91-.98s.91,.38,.91,.98v5.29l.04,.04c.81-1.04,1.95-1.45,3.05-1.45,1.7,0,3.84,1.08,3.84,4.19v6.12c0,.6-.35,.98-.91,.98s-.91-.38-.91-.98v-6.02Z" fill="#fff"/><path d="M80.64,244.12c0,1.89,1.2,3.36,3.26,3.36,2.43,0,3.05-1.49,3.73-1.49,.33,0,.66,.29,.66,.81,0,.89-2.26,2.26-4.42,2.26-3.53,0-5.06-2.72-5.06-5.64s1.87-5.64,4.96-5.64,4.75,2.72,4.75,5.37c0,.64-.23,.98-1.02,.98h-6.87Zm6.06-1.37c0-1.58-.91-3.4-2.93-3.4-2.26-.08-3.07,1.72-3.13,3.4h6.06Z" fill="#fff"/><path d="M93.79,235.01c0-.6,.35-.97,.91-.97s.91,.37,.91,.97v8.78c0,2.32,1.58,3.69,3.9,3.69s3.9-1.37,3.9-3.69v-8.78c0-.6,.35-.97,.91-.97s.91,.37,.91,.97v8.07c0,4.98-3.2,5.98-5.73,5.98s-5.73-1-5.73-5.98v-8.07Z" fill="#fff"/><path d="M108.75,248.08c0,.6-.35,.98-.91,.98s-.91-.38-.91-.98v-13.07c0-.6,.35-.97,.91-.97s.91,.37,.91,.97v5.4l6.33-5.79c.33-.31,.62-.58,1-.58,.46,0,.79,.31,.79,.79s-.17,.64-.37,.83l-6.06,5.46,6.62,6.39c.29,.27,.37,.48,.37,.75,0,.44-.39,.81-.89,.81-.27,0-.52-.04-.89-.39l-6.89-6.77v6.18Z" fill="#fff"/><path d="M124.18,248.08c0,.6-.35,.98-.91,.98s-.91-.38-.91-.98v-12.93c0-.56,.29-1,.97-1h3.61c2.97,0,4.79,2.07,4.79,4.65s-2.03,4.61-4.73,4.61h-2.82v4.67Zm0-6.25h2.7c1.81,0,3.03-1.35,3.03-3.03,0-1.45-.83-3.07-3.11-3.07h-2.62v6.1Z" fill="#fff"/><path d="M141.21,248.17c0,.64-.5,.89-.85,.89-.37,0-.85-.25-.85-.89v-.77h-.04c-.79,1.12-1.83,1.66-3.01,1.66-3.11,0-4.86-2.72-4.86-5.64s1.74-5.64,4.86-5.64c1.27,0,2.16,.54,3.01,1.47h.04v-.58c0-.64,.48-.89,.85-.89,.35,0,.85,.25,.85,.89v9.51Zm-4.75-.69c2.24,0,3.03-2.2,3.03-4.07s-.79-4.07-3.03-4.07-3.03,2.2-3.03,4.07,.79,4.07,3.03,4.07Z" fill="#fff"/><path d="M146.29,237.77c1.51,0,3.67,.81,3.67,1.95,0,.39-.27,.75-.83,.75-.79,0-1.1-1.12-2.84-1.12-1.04,0-1.93,.46-1.93,1.39,0,1.93,5.89,1.72,5.89,4.92,0,2.3-1.97,3.4-4.03,3.4-2.32,0-4.15-1.16-4.15-2.1,0-.5,.35-.83,.75-.83,.81,0,1.47,1.35,3.47,1.35,1.33,0,2.14-.75,2.14-1.49,0-2.16-5.89-2.03-5.89-5.11,0-2.03,1.91-3.11,3.76-3.11Z" fill="#fff"/><path d="M154.78,237.77c1.51,0,3.67,.81,3.67,1.95,0,.39-.27,.75-.83,.75-.79,0-1.1-1.12-2.84-1.12-1.04,0-1.93,.46-1.93,1.39,0,1.93,5.89,1.72,5.89,4.92,0,2.3-1.97,3.4-4.03,3.4-2.32,0-4.15-1.16-4.15-2.1,0-.5,.35-.83,.75-.83,.81,0,1.47,1.35,3.47,1.35,1.33,0,2.14-.75,2.14-1.49,0-2.16-5.89-2.03-5.89-5.11,0-2.03,1.91-3.11,3.76-3.11Z" fill="#fff"/><path d="M160.6,234.03c.62,0,1.12,.5,1.12,1.12s-.5,1.12-1.12,1.12-1.12-.5-1.12-1.12,.5-1.12,1.12-1.12Zm.91,14.05c0,.6-.35,.98-.91,.98s-.91-.38-.91-.98v-9.34c0-.6,.35-.97,.91-.97s.91,.37,.91,.97v9.34Z" fill="#fff"/><path d="M162.17,239.37c-.12-.33-.19-.54-.19-.75,0-.54,.39-.85,.83-.85,.6,0,.81,.29,.96,.71l2.51,7.64h.04l2.51-7.64c.14-.42,.35-.71,.95-.71,.44,0,.83,.31,.83,.85,0,.21-.06,.42-.19,.75l-3.18,8.9c-.19,.54-.37,.79-.95,.79s-.77-.25-.95-.79l-3.18-8.9Z" fill="#fff"/><path d="M172.06,244.12c0,1.89,1.2,3.36,3.26,3.36,2.43,0,3.05-1.49,3.73-1.49,.33,0,.66,.29,.66,.81,0,.89-2.26,2.26-4.42,2.26-3.53,0-5.06-2.72-5.06-5.64s1.87-5.64,4.96-5.64,4.75,2.72,4.75,5.37c0,.64-.23,.98-1.02,.98h-6.87Zm6.06-1.37c0-1.58-.91-3.4-2.93-3.4-2.26-.08-3.07,1.72-3.13,3.4h6.06Z" fill="#fff"/><path d="M187.05,247.96c0,.73-.35,1.1-.91,1.1s-.91-.38-.91-1.1v-12.82c0-.73,.35-1.1,.91-1.1s.91,.37,.91,1.1v5.6h7.78v-5.6c0-.73,.35-1.1,.91-1.1s.91,.37,.91,1.1v12.82c0,.73-.35,1.1-.91,1.1s-.91-.38-.91-1.1v-5.64h-7.78v5.64Z" fill="#fff"/><path d="M202.66,237.77c3.11,0,4.86,2.72,4.86,5.64s-1.74,5.64-4.86,5.64-4.86-2.72-4.86-5.64,1.74-5.64,4.86-5.64Zm0,9.71c2.24,0,3.03-2.2,3.03-4.07s-.79-4.07-3.03-4.07-3.03,2.2-3.03,4.07,.79,4.07,3.03,4.07Z" fill="#fff"/><path d="M208.54,238.75c0-.6,.35-.97,.91-.97s.91,.37,.91,.97v5.85c0,1.89,.83,2.88,2.55,2.88s2.55-1,2.55-2.88v-5.85c0-.6,.35-.97,.91-.97s.91,.37,.91,.97v5.91c0,3.24-2.16,4.4-4.38,4.4s-4.38-1.16-4.38-4.4v-5.91Z" fill="#fff"/><path d="M222.25,237.77c1.52,0,3.67,.81,3.67,1.95,0,.39-.27,.75-.83,.75-.79,0-1.1-1.12-2.84-1.12-1.04,0-1.93,.46-1.93,1.39,0,1.93,5.89,1.72,5.89,4.92,0,2.3-1.97,3.4-4.03,3.4-2.32,0-4.15-1.16-4.15-2.1,0-.5,.35-.83,.75-.83,.81,0,1.47,1.35,3.46,1.35,1.33,0,2.14-.75,2.14-1.49,0-2.16-5.89-2.03-5.89-5.11,0-2.03,1.91-3.11,3.76-3.11Z" fill="#fff"/><path d="M228.33,244.12c0,1.89,1.2,3.36,3.26,3.36,2.43,0,3.05-1.49,3.74-1.49,.33,0,.66,.29,.66,.81,0,.89-2.26,2.26-4.42,2.26-3.53,0-5.06-2.72-5.06-5.64s1.87-5.64,4.96-5.64,4.75,2.72,4.75,5.37c0,.64-.23,.98-1.02,.98h-6.87Zm6.06-1.37c0-1.58-.91-3.4-2.93-3.4-2.26-.08-3.07,1.72-3.13,3.4h6.06Z" fill="#fff"/><path d="M247.4,234.03c4.21,0,6.47,3.67,6.47,7.51s-2.26,7.51-6.47,7.51-6.47-3.67-6.47-7.51,2.26-7.51,6.47-7.51Zm0,13.45c3.32,0,4.52-3.11,4.52-5.94s-1.2-5.93-4.52-5.93-4.53,3.11-4.53,5.93,1.21,5.94,4.53,5.94Z" fill="#fff"/><path d="M255.01,238.75c0-.6,.35-.97,.91-.97s.91,.37,.91,.97v.93h.04c.42-.85,1.43-1.91,2.49-1.91,.64,0,1.02,.41,1.02,.93s-.37,.85-1.14,1c-1.08,.19-2.41,1-2.41,3.13v5.25c0,.6-.35,.98-.91,.98s-.91-.38-.91-.98v-9.34Z" fill="#fff"/><path d="M269.41,248.15c0,3.28-1.99,5.27-4.98,5.27-1.89,0-4.23-1.08-4.23-2.01,0-.37,.19-.85,.77-.85,.83,0,1.64,1.29,3.61,1.29,2.32,0,3.01-1.83,3.01-3.4v-.96h-.04c-.56,.96-1.56,1.58-2.8,1.58-3.11,0-4.86-2.72-4.86-5.64s1.74-5.64,4.86-5.64c1.18,0,2.32,.72,2.8,1.39h.04v-.5c0-.64,.48-.89,.98-.89,.35,0,.85,.25,.85,.89v9.48Zm-4.67-.66c2.24,0,3.03-2.2,3.03-4.07s-.79-4.07-3.03-4.07-3.03,2.2-3.03,4.07,.79,4.07,3.03,4.07Z" fill="#fff"/><path d="M280.16,248.17c0,.64-.5,.89-.85,.89-.37,0-.85-.25-.85-.89v-.77h-.04c-.79,1.12-1.83,1.66-3.01,1.66-3.11,0-4.86-2.72-4.86-5.64s1.74-5.64,4.86-5.64c1.27,0,2.16,.54,3.01,1.47h.04v-.58c0-.64,.48-.89,.85-.89,.35,0,.85,.25,.85,.89v9.51Zm-4.75-.69c2.24,0,3.03-2.2,3.03-4.07s-.79-4.07-3.03-4.07-3.03,2.2-3.03,4.07,.79,4.07,3.03,4.07Z" fill="#fff"/><path d="M281.8,238.75c0-.6,.35-.97,.91-.97s.91,.37,.91,.97v.44l.04,.04c.81-1.04,1.95-1.45,3.05-1.45,1.7,0,3.84,1.08,3.84,4.19v6.12c0,.6-.35,.98-.91,.98s-.91-.38-.91-.98v-6.02c0-1.93-1.35-2.72-2.55-2.72s-2.55,.79-2.55,2.72v6.02c0,.6-.35,.98-.91,.98s-.91-.38-.91-.98v-9.34Z" fill="#fff"/><path d="M293.04,234.03c.62,0,1.12,.5,1.12,1.12s-.5,1.12-1.12,1.12-1.12-.5-1.12-1.12,.5-1.12,1.12-1.12Zm.91,14.05c0,.6-.35,.98-.91,.98s-.91-.38-.91-.98v-9.34c0-.6,.35-.97,.91-.97s.91,.37,.91,.97v9.34Z" fill="#fff"/><path d="M298.99,237.77c1.51,0,3.67,.81,3.67,1.95,0,.39-.27,.75-.83,.75-.79,0-1.1-1.12-2.84-1.12-1.04,0-1.93,.46-1.93,1.39,0,1.93,5.89,1.72,5.89,4.92,0,2.3-1.97,3.4-4.03,3.4-2.32,0-4.15-1.16-4.15-2.1,0-.5,.35-.83,.75-.83,.81,0,1.47,1.35,3.47,1.35,1.33,0,2.14-.75,2.14-1.49,0-2.16-5.89-2.03-5.89-5.11,0-2.03,1.91-3.11,3.76-3.11Z" fill="#fff"/><path d="M312.94,248.17c0,.64-.5,.89-.85,.89-.37,0-.85-.25-.85-.89v-.77h-.04c-.79,1.12-1.83,1.66-3.01,1.66-3.11,0-4.86-2.72-4.86-5.64s1.74-5.64,4.86-5.64c1.27,0,2.16,.54,3.01,1.47h.04v-.58c0-.64,.48-.89,.85-.89,.35,0,.85,.25,.85,.89v9.51Zm-4.75-.69c2.24,0,3.03-2.2,3.03-4.07s-.79-4.07-3.03-4.07-3.03,2.2-3.03,4.07,.79,4.07,3.03,4.07Z" fill="#fff"/><path d="M315.1,235.51c0-.6,.35-.97,.91-.97s.91,.37,.91,.97v2.39h.75c.6,0,.91,.29,.91,.79s-.31,.79-.91,.79h-.75v8.61c0,.6-.35,.98-.91,.98s-.91-.38-.91-.98v-8.61h-.75c-.6,0-.91-.29-.91-.79s.31-.79,.91-.79h.75v-2.39Z" fill="#fff"/><path d="M319.99,234.03c.62,0,1.12,.5,1.12,1.12s-.5,1.12-1.12,1.12-1.12-.5-1.12-1.12,.5-1.12,1.12-1.12Zm.91,14.05c0,.6-.35,.98-.91,.98s-.91-.38-.91-.98v-9.34c0-.6,.35-.97,.91-.97s.91,.37,.91,.97v9.34Z" fill="#fff"/><path d="M326.78,237.77c3.11,0,4.86,2.72,4.86,5.64s-1.74,5.64-4.86,5.64-4.86-2.72-4.86-5.64,1.74-5.64,4.86-5.64Zm0,9.71c2.24,0,3.03-2.2,3.03-4.07s-.79-4.07-3.03-4.07-3.03,2.2-3.03,4.07,.79,4.07,3.03,4.07Z" fill="#fff"/><path d="M332.74,238.75c0-.6,.35-.97,.91-.97s.91,.37,.91,.97v.44l.04,.04c.81-1.04,1.95-1.45,3.05-1.45,1.7,0,3.84,1.08,3.84,4.19v6.12c0,.6-.35,.98-.91,.98s-.91-.38-.91-.98v-6.02c0-1.93-1.35-2.72-2.55-2.72s-2.55,.79-2.55,2.72v6.02c0,.6-.35,.98-.91,.98s-.91-.38-.91-.98v-9.34Z" fill="#fff"/></g></svg>