<svg xmlns="http://www.w3.org/2000/svg" width="150.728" height="68.68" viewBox="0 0 150.728 68.68"><g transform="translate(-218.352 -259.233)"><path d="M229.109,323.243a4.7,4.7,0,0,1-5.02,4.324c-3.341,0-5.494-2.488-5.494-6.349,0-3.785,2.2-6.271,5.541-6.271a4.7,4.7,0,0,1,4.973,4.275h-1.79a3.053,3.053,0,0,0-3.2-2.9c-2.265,0-3.784,1.962-3.784,4.86,0,3.025,1.472,4.972,3.752,4.972a3.115,3.115,0,0,0,3.23-2.913h1.79" transform="translate(0.002 0.346)" fill="#fff"/><path d="M232.247,317.43a21.214,21.214,0,0,1-.1,2.279l.062.033a3.073,3.073,0,0,1,2.677-1.394,2.89,2.89,0,0,1,2.692,1.535,5.948,5.948,0,0,1,.363,2.77v4.608h-1.5v-4.972a3.139,3.139,0,0,0-.378-2,1.907,1.907,0,0,0-1.552-.7,2.154,2.154,0,0,0-1.869.966,3.812,3.812,0,0,0-.4,2.122v4.575h-1.5V315.247h1.5v2.183" transform="translate(0.077 0.348)" fill="#fff"/><path d="M245.822,327.244c-.064-.491-.079-.65-.112-1.171l-.062-.017a3.2,3.2,0,0,1-2.8,1.393c-1.883,0-3.149-1.076-3.149-2.658a2.359,2.359,0,0,1,1.93-2.359,12.9,12.9,0,0,1,1.853-.379c.474-.064,1.044-.128,2.026-.224,0-1.124-.079-1.44-.379-1.772a1.993,1.993,0,0,0-1.52-.539c-1.282,0-1.916.553-2.01,1.757h-1.567a2.984,2.984,0,0,1,.935-2.105,3.909,3.909,0,0,1,2.642-.885,3.437,3.437,0,0,1,2.914,1.267c.411.6.506,1.171.506,3.133v1.268a13.682,13.682,0,0,0,.27,3.293h-1.473m-4.5-2.392c0,.856.664,1.393,1.757,1.393,1.615,0,2.47-.933,2.453-2.675a2.458,2.458,0,0,1,.048-.586C242.418,323.205,241.326,323.682,241.326,324.853Z" transform="translate(0.132 0.366)" fill="#fff"/><path d="M250.717,318.536v.648a2.658,2.658,0,0,1-.095.762l.063.014a2.982,2.982,0,0,1,2.723-1.63,2.677,2.677,0,0,1,.824.11V319.8a1.757,1.757,0,0,0-.919-.221,2.455,2.455,0,0,0-2.2,1.33,5.532,5.532,0,0,0-.316,2.2v4.133h-1.505v-8.708h1.425" transform="translate(0.192 0.367)" fill="#fff"/><path d="M258.28,318.183a1.155,1.155,0,0,1-.048.413,1.186,1.186,0,0,1,.411-.047h1.6v1.2h-1.6a1.187,1.187,0,0,1-.411-.047,1.166,1.166,0,0,1,.048.413v4.29c0,.981.031,1.17.175,1.378a1.177,1.177,0,0,0,.934.349,2.383,2.383,0,0,0,.853-.144V327.3a6.622,6.622,0,0,1-1.312.157,2.064,2.064,0,0,1-1.853-.966,2.981,2.981,0,0,1-.3-1.6v-4.782a.264.264,0,1,0-.363-.365h-1.22v-1.2h1.22a.264.264,0,1,0,.363-.365v-1.74h1.5v1.74" transform="translate(0.229 0.355)" fill="#fff"/><path d="M263.005,323.317a.791.791,0,0,1-.4-.064,3.394,3.394,0,0,0,.364,1.617,2.791,2.791,0,0,0,2.407,1.361,2.185,2.185,0,0,0,2.279-1.663h1.616a3.645,3.645,0,0,1-3.928,2.928c-2.643,0-4.306-1.787-4.306-4.622,0-2.753,1.662-4.59,4.149-4.59,2.643,0,4.085,1.787,4.085,5.034h-6.271m4.148-1.2a1.66,1.66,0,0,1,.57.063,3.534,3.534,0,0,0-.413-1.535,2.461,2.461,0,0,0-2.1-1.125c-1.488,0-2.375.936-2.564,2.66a1.521,1.521,0,0,1,.553-.063Z" transform="translate(0.265 0.366)" fill="#fff"/><path d="M272.411,318.536v.648a2.622,2.622,0,0,1-.095.762l.063.014a2.981,2.981,0,0,1,2.723-1.63,2.666,2.666,0,0,1,.823.11V319.8a1.75,1.75,0,0,0-.919-.221,2.453,2.453,0,0,0-2.2,1.33,5.524,5.524,0,0,0-.318,2.2v4.133h-1.5v-8.708h1.425" transform="translate(0.327 0.367)" fill="#fff"/><path d="M278.229,323.317a.791.791,0,0,1-.4-.064,3.383,3.383,0,0,0,.363,1.617,2.793,2.793,0,0,0,2.406,1.361,2.186,2.186,0,0,0,2.281-1.663H284.5a3.642,3.642,0,0,1-3.926,2.928c-2.643,0-4.306-1.787-4.306-4.622,0-2.753,1.662-4.59,4.148-4.59,2.643,0,4.084,1.787,4.084,5.034h-6.269m4.147-1.2a1.663,1.663,0,0,1,.571.063,3.535,3.535,0,0,0-.413-1.535,2.462,2.462,0,0,0-2.1-1.125c-1.488,0-2.376.936-2.565,2.66a1.524,1.524,0,0,1,.554-.063Z" transform="translate(0.359 0.366)" fill="#fff"/><path d="M292.181,327.263v-.728a3.162,3.162,0,0,1,.095-.824l-.064-.015a3.09,3.09,0,0,1-2.817,1.772c-2.183,0-3.672-1.82-3.672-4.511,0-2.707,1.519-4.607,3.688-4.607a2.921,2.921,0,0,1,2.723,1.662l.078-.016a20.381,20.381,0,0,1-.11-2.438v-2.31h1.5v12.016h-1.424m-4.845-4.307c0,1.978.885,3.26,2.264,3.26,1.425,0,2.485-1.425,2.485-3.307,0-1.964-1.013-3.341-2.438-3.341S287.336,320.867,287.336,322.957Z" transform="translate(0.418 0.348)" fill="#fff"/><path d="M301.738,315.247h3.927a5.175,5.175,0,0,1,3.214.7,3.359,3.359,0,0,1,1.394,2.945,3.453,3.453,0,0,1-1.615,3.118,5.759,5.759,0,0,1-3.023.538h-1.918a.264.264,0,1,0-.363.364v4.354h-1.616V315.247m1.616,5.586a1.192,1.192,0,0,1-.047.414,1.177,1.177,0,0,1,.411-.047h2.1a3.441,3.441,0,0,0,1.616-.255,2.287,2.287,0,0,0,1.2-2.057,2.356,2.356,0,0,0-.9-1.885,3.348,3.348,0,0,0-1.9-.413h-2.122a1.2,1.2,0,0,1-.411-.046,1.178,1.178,0,0,1,.047.412Z" transform="translate(0.517 0.348)" fill="#fff"/><path d="M313.359,318.536v.648a2.694,2.694,0,0,1-.095.762l.063.014a2.982,2.982,0,0,1,2.723-1.63,2.674,2.674,0,0,1,.823.11V319.8a1.753,1.753,0,0,0-.919-.221,2.453,2.453,0,0,0-2.2,1.33,5.533,5.533,0,0,0-.316,2.2v4.133h-1.505v-8.708h1.425" transform="translate(0.581 0.367)" fill="#fff"/><path d="M323.388,327.244c-.064-.491-.079-.65-.112-1.171l-.062-.017a3.2,3.2,0,0,1-2.8,1.393c-1.882,0-3.149-1.076-3.149-2.658a2.362,2.362,0,0,1,1.932-2.359,12.862,12.862,0,0,1,1.851-.379c.475-.064,1.045-.128,2.027-.224,0-1.124-.077-1.44-.379-1.772a2,2,0,0,0-1.52-.539c-1.281,0-1.916.553-2.011,1.757h-1.567a2.988,2.988,0,0,1,.936-2.105,3.911,3.911,0,0,1,2.642-.885,3.437,3.437,0,0,1,2.914,1.267c.409.6.506,1.171.506,3.133v1.268a13.735,13.735,0,0,0,.27,3.293h-1.473m-4.5-2.392c0,.856.664,1.393,1.757,1.393,1.616,0,2.471-.933,2.455-2.675a2.506,2.506,0,0,1,.047-.586C319.984,323.205,318.891,323.682,318.891,324.853Z" transform="translate(0.614 0.366)" fill="#fff"/><path d="M334.144,324.252a3.493,3.493,0,0,1-3.722,3.244c-2.421,0-4.035-1.851-4.035-4.653,0-2.723,1.661-4.56,4.149-4.56a3.355,3.355,0,0,1,3.608,3.135h-1.535a2.031,2.031,0,0,0-2.09-1.9c-1.569,0-2.518,1.251-2.518,3.327s.983,3.388,2.518,3.388a2.093,2.093,0,0,0,2.09-1.979h1.535" transform="translate(0.671 0.366)" fill="#fff"/><path d="M337.766,318.183a.264.264,0,1,0,.363.365h1.6v1.2h-1.6a.264.264,0,1,0-.363.365v4.29c0,.981.033,1.17.175,1.378a1.178,1.178,0,0,0,.934.349,2.383,2.383,0,0,0,.853-.144V327.3a6.621,6.621,0,0,1-1.312.157,2.066,2.066,0,0,1-1.854-.966,2.964,2.964,0,0,1-.3-1.6v-4.782a.265.265,0,1,0-.364-.365h-1.219v-1.2H335.9a.265.265,0,1,0,.364-.365v-1.74h1.5v1.74" transform="translate(0.722 0.355)" fill="#fff"/><path d="M341.256,315.247h1.5V317h-1.5v-1.757m0,3.308h1.5v8.707h-1.5Z" transform="translate(0.763 0.348)" fill="#fff"/><path d="M352.427,324.252a3.491,3.491,0,0,1-3.72,3.244c-2.422,0-4.038-1.851-4.038-4.653,0-2.723,1.662-4.56,4.15-4.56a3.357,3.357,0,0,1,3.608,3.135h-1.535a2.029,2.029,0,0,0-2.09-1.9c-1.567,0-2.517,1.251-2.517,3.327s.98,3.388,2.517,3.388a2.09,2.09,0,0,0,2.09-1.979h1.535" transform="translate(0.784 0.366)" fill="#fff"/><path d="M355.444,323.317a.792.792,0,0,1-.4-.064,3.383,3.383,0,0,0,.363,1.617,2.794,2.794,0,0,0,2.407,1.361,2.185,2.185,0,0,0,2.28-1.663h1.614a3.642,3.642,0,0,1-3.926,2.928c-2.643,0-4.307-1.787-4.307-4.622,0-2.753,1.663-4.59,4.149-4.59,2.643,0,4.084,1.787,4.084,5.034h-6.268m4.146-1.2a1.658,1.658,0,0,1,.572.063,3.538,3.538,0,0,0-.412-1.535,2.467,2.467,0,0,0-2.106-1.125c-1.488,0-2.375.936-2.565,2.66a1.515,1.515,0,0,1,.552-.063Z" transform="translate(0.839 0.366)" fill="#fff"/><line x2="143.85" transform="translate(218.883 308.45)" fill="#1a1818"/><rect width="143.851" height="0.483" transform="translate(218.883 308.208)" fill="#fff"/><path d="M224.614,276.831V263.738a8.562,8.562,0,0,1,1.861-.162c5.973,0,7.463,4.076,7.463,7.017,0,3.984-2.079,6.237-7.63,6.237h-1.694M218.766,263.2c1.035,0,2.779.617,2.779,3.231v22.551a2.947,2.947,0,0,1-3.193,3.275v.331h9.495v-.331a2.972,2.972,0,0,1-3.233-3.275V277.622c1.99,0,4.764.121,7.871,5.264l3.567,6.35c.042.041.705,1.073,1.078,1.612.622.915.952,1.284,1.285,1.743h5.429v-.331c-.911-.084-2.356-.128-5.1-4.766l-2.7-5.021a12.3,12.3,0,0,0-4.931-5.145v-.082c4.353-.787,6.259-3.791,6.259-6.9,0-2.9-1.7-7.564-8.708-7.564H218.352v.419Z" transform="translate(0 0.022)" fill="#fff"/><path d="M257.341,263.12a2.914,2.914,0,0,0-3.193,3.231v22.634a3.017,3.017,0,0,0,3.193,3.275v.331h-9.453v-.331a2.963,2.963,0,0,0,3.195-3.275V266.351a2.892,2.892,0,0,0-3.195-3.231v-.336h9.453v.336" transform="translate(0.183 0.022)" fill="#fff"/><path d="M270.043,276.819V264.155a8.14,8.14,0,0,1,2.646-.455c3.526,0,6.011,3.173,6.011,6.821a6.345,6.345,0,0,1-3.313,5.8,7.432,7.432,0,0,1-3.4.5h-1.942m4.887,15.772c.5,0,3.9-.04,5.969-1.2a7.589,7.589,0,0,0,3.939-6.554,7.257,7.257,0,0,0-2.449-5.463c-1.821-1.7-4.207-2.092-6.668-2.307v-.082c3.646-.957,6.421-3.232,6.421-7.042,0-3.769-3.4-7.158-8.622-7.158h-9.743v.336h.371c1.7,0,2.821,1.2,2.821,3.355v22.51c0,2.364-1.446,3.275-2.778,3.275h-.415v.331Zm-1.822-14.862c5.053,0,8.293,2.465,8.293,6.984a8.214,8.214,0,0,1-1.205,4.229c-.959,1.5-2.738,2.738-5.848,2.738-4.3,0-4.3-2.031-4.3-3.566V277.729Z" transform="translate(0.282 0.022)" fill="#fff"/><path d="M297.792,263.013a2.632,2.632,0,0,1,2.482,1.305l-7.9,23.725c-.868,2.615-1.9,4.023-3.979,4.186v.334h7.349v-.334c-1.243,0-2.4-.251-2.4-2.068a9.794,9.794,0,0,1,.489-2.407l3.253-9.941h8.027l3.729,10.521a.8.8,0,0,0,.081.249,6.982,6.982,0,0,1,.369,1.827c0,1.945-1.824,1.819-3.107,1.819v.334h9.743v-.334c-1.45-.122-2.567-.2-4.021-4.309l-8.91-25.185h-5.2l0,.278m-.344,13.673,3.437-10.513h.089l3.727,10.513Z" transform="translate(0.435 0.022)" fill="#fff"/><path d="M367.414,267.976c-1.28,0-1.782,1.2-1.973,1.648-.635,1.509-.654,4.292-.675,6.98l0,.448-.012.944a3.687,3.687,0,0,1-.937,2.693,2.271,2.271,0,0,1-1.557.654,2.945,2.945,0,0,1-2.543-2.157v-.563a.651.651,0,0,0-.441-.622v-8.155h-.521v-.484h.536V269h-.536v-.436h.536V268.2h-.536v-.461h.536v-.359h-.536v-.456h.536v-.365h-.536V266.1h.536v-.36h-.536c-.009-.146-.017-.286-.036-.427l.557-.057-.049-.357-.562.1a2.476,2.476,0,0,0-.1-.38l.509-.258-.172-.319-.462.274a2.149,2.149,0,0,0-.207-.348l.349-.348-.261-.248-.308.351a1.657,1.657,0,0,0-.389-.273l.187-.4-.335-.142-.153.419a2.3,2.3,0,0,0-.493-.1l.017-.435h-.361l.013.427a2.353,2.353,0,0,0-.5.074l-.146-.389-.336.142.166.359a1.945,1.945,0,0,0-.4.271l-.281-.332-.26.249.314.315a2.078,2.078,0,0,0-.245.364l-.411-.25-.175.319.452.224a4.158,4.158,0,0,0-.131.406l-.49-.083-.049.357.476.044a3.371,3.371,0,0,0-.04.44h-.469v.36h.456v.464h-.456v.365h.456v.456h-.456v.359h.456v.456l-.456.005v.359h.456V269h-.456v.361h.456v.488h-.46l0,.4a3.574,3.574,0,0,0-.949.932,1.456,1.456,0,0,0-.634.038,7.455,7.455,0,0,1-1.807.3c-.54,0-.856-.108-1.017-.35-.1-.158-.148-.408-.295-.634a1.015,1.015,0,0,0-.529-.39.89.89,0,0,0-.783-.659h-.032v-4.9a.6.6,0,0,0,.414-.981h.8l1.062-3.534a10.123,10.123,0,0,0-1.083-.274l-.252,1.091s-.31-.055-.6-.121l-.2,1.139a4.054,4.054,0,0,1-.787,0l.159-1.164s-.339.016-.468.008l.145-1.466s-.519-.044-.861-.044-.862.044-.862.044l.145,1.466c-.129.008-.464-.008-.464-.008l.158,1.164a4.15,4.15,0,0,1-.8,0l-.2-1.139c-.283.065-.6.121-.6.121l-.253-1.091a9.9,9.9,0,0,0-1.083.274l1.063,3.534h.757a.573.573,0,0,0-.148.385.6.6,0,0,0,.575.6v4.9H344.5a.889.889,0,0,0-.779.659,1.027,1.027,0,0,0-.533.39c-.142.226-.19.476-.295.634-.156.243-.477.35-1.014.35a7.455,7.455,0,0,1-1.805-.3,1.461,1.461,0,0,0-.635-.038,3.766,3.766,0,0,0-.9-.932l-.009-.415h-.5v-.475h.485V269h-.485v-.436h.485V268.2h-.485v-.461h.485v-.359h-.485v-.456h.485v-.365h-.485V266.1h.485v-.36h-.492c-.008-.146-.025-.29-.045-.432l.525-.052-.05-.357-.539.095a3.267,3.267,0,0,0-.119-.375l.5-.254-.171-.319-.455.274a2.924,2.924,0,0,0-.223-.348l.357-.348-.272-.248-.3.355a1.876,1.876,0,0,0-.385-.277l.182-.4-.332-.142-.151.415a2.151,2.151,0,0,0-.5-.092l.02-.435h-.358l.015.431a2.4,2.4,0,0,0-.5.07l-.148-.389-.332.142.17.359a1.879,1.879,0,0,0-.411.262l-.277-.323-.263.249.311.311a2.243,2.243,0,0,0-.238.368l-.4-.25-.182.319.461.228a3.866,3.866,0,0,0-.118.406l-.512-.087-.05.357.509.048c-.02.146-.028.29-.036.436h-.505v.36h.5v.464h-.5v.365h.5v.456h-.5v.359h.5v.456l-.5.005v.359h.5V269l-.5,0v.361h.5v.475h-.523V278a.649.649,0,0,0-.435.622v.563a2.952,2.952,0,0,1-2.539,2.157,2.265,2.265,0,0,1-1.562-.654A3.628,3.628,0,0,1,327.7,278l-.017-.944V276.6c-.021-2.688-.04-5.471-.678-6.98a2.258,2.258,0,0,0-1.972-1.648.957.957,0,0,0-1.007.92.915.915,0,0,0,.917.915.839.839,0,0,0,.313-.057h.012l.037-.017a.616.616,0,0,1,.855.366c.591,1.191.613,3.892.629,6.066l0,.892.013.986c.036,3.335,2.149,4.224,3.392,4.224a3.331,3.331,0,0,0,1.582-.327,4.152,4.152,0,0,1,1.082-.235,24.524,24.524,0,0,0,.041,4.083,2.336,2.336,0,0,0,.183.606,2.882,2.882,0,0,0-1.122.206.5.5,0,0,1-.547,0,.753.753,0,0,0-.577-.123c-.733.183-.411,1.2-.323,1.613a9.579,9.579,0,0,1,.037,1.969,7.7,7.7,0,0,0,.119,1.714,1.084,1.084,0,0,0,1.244.82.879.879,0,0,0,.634-.341.582.582,0,0,1,.356.341c.028.151.071.155.129.1a.408.408,0,0,0,.091-.284.8.8,0,0,0-.049-.272c.113-.061.095-.013.174-.114.037-.049.154-.008.244.064a1,1,0,0,1,.389.484c.065.161.236.012.294-.163a1.285,1.285,0,0,0,.016-.442.7.7,0,0,1,.472.554c.03.134-.019.241.128.128a.808.808,0,0,0,.219-.642.614.614,0,0,0-.455-.533v0a1.157,1.157,0,0,0-.831-.675,1.215,1.215,0,0,0-.56.028c-.343-.012-.895-.1-.948-.461a5.718,5.718,0,0,1-.052-1.057,1.5,1.5,0,0,1,.437-.807.513.513,0,0,1,.522-.153,7.814,7.814,0,0,0,1.84.3c.487-.045,1.063-.393.928-1.588a6.267,6.267,0,0,0,.553-2.413,15.694,15.694,0,0,0-.081-1.766c.174.158.49.2,1.133.2a2.3,2.3,0,0,0,1.026-.267c.276-.148.349-.024.37.2a9.016,9.016,0,0,1-.061,1.745.529.529,0,0,0,.157.48.519.519,0,0,0,.456.008,2.253,2.253,0,0,1,.65-.042c.352-.019.613-.086,1.173-.116.509-.024,1.735.054,2.322.054a1.061,1.061,0,0,0,.94-.609v4.417a.6.6,0,0,0-.575.595.61.61,0,0,0,.273.506h-.849v2.6h5.642v-2.6H348.2a.612.612,0,0,0,.268-.506.591.591,0,0,0-.556-.591v-4.425a1.066,1.066,0,0,0,.943.613c.586,0,1.811-.078,2.322-.054.556.03.821.1,1.173.116a2.258,2.258,0,0,1,.65.042.52.52,0,0,0,.456-.008.513.513,0,0,0,.153-.48,9.343,9.343,0,0,1-.06-1.745c.024-.219.1-.343.369-.2a2.364,2.364,0,0,0,1.031.267c.638,0,.955-.038,1.134-.2a15.2,15.2,0,0,0-.082,1.766,6.2,6.2,0,0,0,.556,2.413c-.143,1.194.44,1.543.922,1.588a7.853,7.853,0,0,0,1.843-.3.51.51,0,0,1,.521.153,1.562,1.562,0,0,1,.442.807,6.413,6.413,0,0,1-.057,1.057c-.057.364-.609.449-.953.461a1.215,1.215,0,0,0-.561-.028,1.151,1.151,0,0,0-.824.675l0,0a.61.61,0,0,0-.452.533.808.808,0,0,0,.219.642c.143.113.095.006.128-.128a.7.7,0,0,1,.472-.554,1.128,1.128,0,0,0,.017.442c.056.175.232.324.293.163a1.023,1.023,0,0,1,.389-.484c.087-.072.2-.114.246-.064.073.1.056.052.169.114a1.029,1.029,0,0,0-.044.272.385.385,0,0,0,.091.284c.052.057.1.053.133-.1a.559.559,0,0,1,.35-.341.882.882,0,0,0,.631.341,1.076,1.076,0,0,0,1.244-.82,7.4,7.4,0,0,0,.119-1.714,9.883,9.883,0,0,1,.037-1.969c.088-.414.414-1.43-.318-1.613a.738.738,0,0,0-.576.123.505.505,0,0,1-.549,0,2.9,2.9,0,0,0-1.124-.206,2.424,2.424,0,0,0,.19-.606,24.629,24.629,0,0,0,.041-4.083,4.181,4.181,0,0,1,1.077.235,3.32,3.32,0,0,0,1.587.327c1.235,0,3.347-.889,3.387-4.224l.008-.986.009-.892c.017-2.174.037-4.875.63-6.066a.613.613,0,0,1,.852-.366c-.008,0,.035.017.035.017h.012a.864.864,0,0,0,.315.057.916.916,0,0,0,.92-.915.958.958,0,0,0-1.01-.92M344.427,280.73a1.168,1.168,0,0,0-.795.6.512.512,0,0,0-.268.087.7.7,0,0,0-.025,1,.57.57,0,0,0-.1.244,2.224,2.224,0,0,0-.179.336,2.146,2.146,0,0,1-.781.469,2.917,2.917,0,0,1-1.2-.07c-.421-.1-.459-.323-.382-.59a6.968,6.968,0,0,0,.131-1.539c-.011-.265-.1-.751-.484-.9a.95.95,0,0,0-.336-.452,3,3,0,0,0-1.8-.39,2.562,2.562,0,0,0-1.487.489v-1.545c0-.2,0-.319-.125-.44a.484.484,0,0,1-.17-.388.634.634,0,0,0,.076-.279c.558-.169.392-.488.392-.488a.748.748,0,0,0,.637-.646.693.693,0,0,0,.429-.776.754.754,0,0,0,.232-.319,4.311,4.311,0,0,0,.086-.77c0-.154.2-.357.332-.477a4.716,4.716,0,0,1,1.706-.662c.146.02.3.036.469.045a4.942,4.942,0,0,0,1.288-.125,1.706,1.706,0,0,1,.949-.048,1.125,1.125,0,0,1,.617.621s.324.65.865.638a.083.083,0,0,0,.033,0v6.391A.646.646,0,0,0,344.427,280.73Zm11.424-2.7a.533.533,0,0,0-.121.44v1.545a2.576,2.576,0,0,0-1.491-.489,2.991,2.991,0,0,0-1.8.39.949.949,0,0,0-.329.452.966.966,0,0,0-.488.9,6.949,6.949,0,0,0,.126,1.539c.081.267.046.489-.376.59a2.926,2.926,0,0,1-1.2.07,2.135,2.135,0,0,1-.78-.469,2.533,2.533,0,0,0-.179-.336.585.585,0,0,0-.1-.244.705.705,0,0,0-.023-1,.554.554,0,0,0-.27-.087,1.159,1.159,0,0,0-.8-.6.625.625,0,0,0-.1.013v-6.391a.1.1,0,0,0,.032,0c.541.012.869-.638.869-.638a1.138,1.138,0,0,1,.613-.621,1.744,1.744,0,0,1,.959.048,4.866,4.866,0,0,0,1.279.125c.175-.009.326-.025.472-.045a4.681,4.681,0,0,1,1.7.662c.138.12.336.323.336.477a4.314,4.314,0,0,0,.083.77.829.829,0,0,0,.235.319.687.687,0,0,0,.431.776.745.745,0,0,0,.636.646s-.17.319.391.488a.62.62,0,0,0,.075.279A.476.476,0,0,1,355.851,278.029Zm2.04,13.439,0,0C357.878,291.468,357.882,291.468,357.891,291.468Zm-23.331,0v0S334.576,291.468,334.56,291.471Zm1.944-23.9a.194.194,0,0,1,.139.053l.021.029a.217.217,0,0,1,.051.141l-.088.7a.1.1,0,0,1-.091.1l-.3.033a.177.177,0,0,0-.119.087l-.2.278a.09.09,0,0,1-.121,0l-.2-.278a.183.183,0,0,0-.12-.091l-.3-.033a.1.1,0,0,1-.086-.1l-.084-.7a.168.168,0,0,1,.051-.141l.02-.029a.188.188,0,0,1,.139-.049A4.86,4.86,0,0,0,336.5,267.566Zm-.648-2.146h-.414a.068.068,0,0,1-.065-.066v-.477a.069.069,0,0,0-.065-.069h-.8c-.027,0-.037-.042-.027-.062a1.473,1.473,0,0,1,2.749,0c.008.02,0,.062-.029.062h-.795a.07.07,0,0,0-.065.069v.477a.069.069,0,0,1-.068.066Zm-.012.915c0-.165.19-.3.357-.376a.4.4,0,0,0,.211-.335,1.407,1.407,0,0,1,.261.933c0,.447-.187.607-.38.637a.375.375,0,0,1-.449-.335.368.368,0,0,1-.442.335c-.2-.03-.387-.19-.387-.637a1.431,1.431,0,0,1,.26-.933.4.4,0,0,0,.215.335c.16.074.354.211.354.376m21.392,1.236a.174.174,0,0,1,.135.049l.029.029a.208.208,0,0,1,.047.141l-.085.7a.106.106,0,0,1-.09.1l-.3.033a.173.173,0,0,0-.116.091l-.2.278a.1.1,0,0,1-.125,0l-.2-.278a.177.177,0,0,0-.119-.087l-.3-.033a.111.111,0,0,1-.091-.1l-.078-.7a.2.2,0,0,1,.047-.141l.02-.029a.188.188,0,0,1,.139-.053A4.861,4.861,0,0,0,357.236,267.57Zm-1.061-2.15a.073.073,0,0,1-.068-.066v-.477a.07.07,0,0,0-.064-.069h-.8c-.028,0-.037-.042-.024-.062a1.471,1.471,0,0,1,2.746,0c.012.02,0,.062-.029.062h-.795a.07.07,0,0,0-.067.069v.477a.07.07,0,0,1-.064.066Zm1.358-.024a.731.731,0,0,0,.5-.1s.126-.125.126.357a1.275,1.275,0,0,1-.294.869A1.361,1.361,0,0,0,357.534,265.4Zm-2.193,1.13a1.281,1.281,0,0,1-.293-.869c0-.482.125-.357.125-.357a.716.716,0,0,0,.492.1A1.37,1.37,0,0,0,355.341,266.526Zm-18.568-1.13a.74.74,0,0,0,.5-.1s.121-.125.121.357a1.269,1.269,0,0,1-.3.869A1.368,1.368,0,0,0,336.774,265.4Zm-2.2,1.13a1.261,1.261,0,0,1-.293-.869c0-.482.119-.357.119-.357a.742.742,0,0,0,.5.1A1.375,1.375,0,0,0,334.576,266.526Zm22.03-.191c0-.165.191-.3.355-.376a.406.406,0,0,0,.215-.335,1.431,1.431,0,0,1,.259.933c0,.447-.187.607-.389.637a.459.459,0,0,0-.884,0c-.2-.03-.379-.19-.379-.637a1.437,1.437,0,0,1,.252-.933.406.406,0,0,0,.215.335c.163.074.357.211.357.376" transform="translate(0.656)" fill="#fff"/></g></svg>