<?xml version="1.0" encoding="UTF-8"?><svg xmlns="http://www.w3.org/2000/svg" viewBox="0 0 89.41 31.62"><defs><style>.d{fill:#f9b442;}.e{fill:#fff;}</style></defs><g id="a"/><g id="b"><g id="c"><path class="d" d="M23.28,21.18c.09-.12,.17-.24,.25-.37,.04-.06,.08-.11,.12-.17,.04-.07,.08-.15,.12-.22,.07-.13,.14-.25,.21-.38,.08-.16,.16-.31,.23-.47,.05-.1,.09-.2,.13-.31,.08-.19,.14-.37,.21-.56,.03-.08,.05-.17,.08-.25,.06-.2,.12-.41,.16-.61,.02-.08,.03-.17,.05-.25,.04-.2,.07-.4,.1-.6,.01-.11,.02-.21,.03-.32,.02-.18,.03-.35,.04-.53,0-.14,0-.29,0-.43,0-.14,0-.27-.01-.41-.01-.18-.03-.37-.05-.55-.01-.1-.02-.2-.04-.3-.03-.21-.07-.41-.12-.62-.02-.08-.03-.16-.05-.23-.05-.21-.11-.42-.18-.63-.03-.08-.05-.16-.08-.23-.07-.19-.14-.38-.23-.57-.04-.1-.08-.19-.13-.29-.08-.16-.16-.32-.25-.48-.07-.12-.14-.24-.21-.36-.05-.07-.08-.15-.13-.23-.01-.02-.03-.03-.04-.04-.72-1.1-1.67-2.06-2.86-2.79-.47-.29-1.09-.14-1.38,.33-.29,.47-.14,1.09,.33,1.38,1,.62,1.79,1.44,2.37,2.39,.06,.1,.12,.2,.17,.3,.07,.12,.13,.24,.19,.36,.04,.08,.07,.16,.11,.24,.06,.14,.12,.29,.17,.44,.02,.06,.04,.13,.06,.19,.05,.16,.1,.32,.14,.48,.02,.06,.03,.13,.04,.19,.03,.16,.07,.32,.09,.47,.01,.08,.02,.16,.03,.24,.02,.14,.03,.28,.04,.42,0,.11,0,.22,0,.33,0,.11,0,.22,0,.33,0,.14-.02,.28-.03,.42,0,.08-.01,.16-.02,.24-.02,.16-.05,.32-.08,.48-.01,.06-.02,.13-.04,.19-.04,.16-.08,.32-.13,.48-.02,.06-.04,.13-.06,.19-.05,.15-.11,.3-.16,.45-.03,.08-.06,.16-.1,.23-.06,.13-.12,.25-.18,.38-.05,.1-.1,.19-.16,.29-.06,.11-.13,.21-.19,.32-.06,.09-.13,.19-.19,.28-.07,.1-.15,.2-.23,.3-.06,.08-.13,.16-.2,.24-.09,.11-.19,.21-.29,.31-.06,.06-.12,.12-.18,.18-.12,.11-.24,.22-.37,.33-.05,.04-.1,.08-.15,.12-.14,.11-.29,.22-.44,.32-.05,.03-.1,.07-.15,.1-.14,.09-.28,.17-.42,.25-.08,.04-.16,.08-.23,.12-.11,.06-.23,.11-.34,.16-.12,.05-.24,.1-.36,.15-.08,.03-.16,.06-.24,.08-.16,.05-.32,.1-.48,.14-.06,.01-.12,.03-.17,.04-.17,.04-.34,.07-.51,.1-.07,.01-.14,.02-.21,.03-.15,.02-.3,.03-.44,.04-.11,0-.21,0-.32,.01-.11,0-.22,0-.33,0-.15,0-.29-.01-.44-.03-.07,0-.15-.01-.22-.02-.17-.02-.34-.05-.51-.08-.06-.01-.12-.02-.18-.04-.16-.04-.32-.08-.48-.13-.08-.02-.16-.05-.24-.08-.13-.04-.25-.09-.37-.14-.12-.05-.23-.09-.34-.15-.08-.04-.16-.08-.25-.12-.14-.07-.28-.15-.42-.23-.06-.03-.11-.07-.17-.11-.15-.09-.29-.19-.43-.3-.06-.04-.11-.08-.17-.13-.13-.1-.25-.2-.36-.31-.07-.06-.13-.12-.2-.18-.1-.1-.19-.19-.28-.29-.07-.08-.15-.16-.22-.25-.08-.09-.15-.18-.22-.28-.07-.1-.14-.19-.21-.29-.07-.1-.13-.2-.19-.3-.06-.09-.11-.18-.16-.28-.07-.13-.14-.25-.2-.39-.03-.07-.06-.13-.09-.2-.07-.16-.14-.33-.19-.49-.01-.04-.03-.08-.04-.11-.06-.19-.12-.38-.17-.58l-.02-.06c-.05-.2-.09-.41-.12-.61v-.07c-.04-.19-.05-.39-.06-.59,0-.05,0-.1,0-.15,0-.17,0-.34,0-.51,0-.09,0-.17,.02-.26,.01-.13,.02-.27,.04-.4,.02-.12,.04-.24,.06-.35,.02-.11,.04-.22,.07-.32,.03-.12,.06-.25,.1-.37,.03-.11,.06-.22,.1-.33,.03-.1,.07-.2,.11-.3,.05-.13,.11-.26,.17-.39,.03-.07,.07-.15,.11-.22,.08-.15,.16-.3,.24-.44,.56-.94,1.32-1.74,2.26-2.35,.46-.3,.6-.92,.3-1.38s-.92-.6-1.38-.3c-1.16,.75-2.11,1.74-2.81,2.88,0,0-.02,.01-.02,.02-.02,.03-.04,.07-.06,.1-.11,.18-.21,.36-.3,.54-.05,.1-.1,.2-.15,.3-.07,.15-.13,.3-.19,.45-.06,.15-.12,.3-.17,.46-.04,.11-.07,.21-.1,.32-.06,.2-.11,.4-.16,.6,0,.04-.02,.08-.03,.12,0,.04-.01,.09-.02,.13-.04,.21-.08,.43-.1,.64-.01,.1-.02,.19-.03,.29-.02,.19-.03,.37-.04,.56,0,.14,0,.27,0,.41,0,.14,0,.28,.01,.42,.01,.18,.03,.37,.05,.55,.01,.1,.02,.2,.04,.29,.03,.21,.07,.42,.12,.63,0,.04,.01,.09,.02,.13,0,.04,.02,.08,.03,.12,.05,.2,.11,.4,.17,.59,.04,.11,.07,.22,.11,.32,.06,.15,.12,.3,.18,.45,.06,.15,.13,.3,.21,.45,.05,.1,.1,.2,.15,.3,.1,.19,.2,.37,.32,.54,.02,.03,.04,.07,.06,.1,.02,.04,.05,.07,.07,.1,.12,.18,.25,.36,.38,.53,.06,.07,.12,.15,.18,.22,.12,.15,.24,.29,.37,.42,.09,.1,.19,.2,.29,.29,.1,.1,.2,.19,.31,.29,.14,.12,.28,.24,.42,.36,.08,.06,.15,.12,.23,.18,.17,.13,.35,.25,.54,.37,.04,.02,.07,.05,.11,.07,.02,.02,.05,.02,.08,.04,.34,.2,.68,.39,1.05,.55h.02c.33,.15,.68,.27,1.03,.38,.14,.04,.27,.07,.41,.11,.11,.03,.21,.06,.32,.08,.11,.02,.23,.03,.34,.05,.16,.03,.33,.06,.49,.08,.31,.04,.62,.06,.93,.06,.05,0,.1,.01,.15,.01h.04s.08,0,.12,0c.34,0,.69-.03,1.03-.07,.18-.02,.36-.06,.54-.1,.14-.03,.28-.04,.42-.07,.08-.02,.16-.05,.24-.07,.14-.04,.28-.08,.41-.12,.36-.11,.71-.24,1.04-.39h0c.38-.17,.74-.38,1.09-.6,.02-.02,.05-.03,.08-.04,.04-.02,.07-.05,.11-.08,.19-.12,.37-.26,.55-.4,.07-.06,.14-.11,.21-.17,.16-.13,.31-.27,.46-.41,.08-.08,.16-.15,.24-.23,.12-.13,.24-.26,.36-.39,.09-.1,.18-.21,.26-.31,.1-.12,.19-.25,.28-.37Z"/><path class="e" d="M15.81,16.04c-.55,0-1-.45-1-1v-6.91c0-.55,.45-1,1-1s1,.45,1,1v6.91c0,.55-.45,1-1,1Z"/><g><path class="d" d="M15.81,5.45c-.55,0-1-.45-1-1V1c0-.55,.45-1,1-1s1,.45,1,1v3.45c0,.55-.45,1-1,1Z"/><path class="d" d="M15.81,31.62c-.55,0-1-.45-1-1v-3.45c0-.55,.45-1,1-1s1,.45,1,1v3.45c0,.55-.45,1-1,1Z"/></g><g><path class="d" d="M26.16,15.81c0-.55,.45-1,1-1h3.45c.55,0,1,.45,1,1s-.45,1-1,1h-3.45c-.55,0-1-.45-1-1Z"/><path class="d" d="M0,15.81c0-.55,.45-1,1-1h3.45c.55,0,1,.45,1,1s-.45,1-1,1H1c-.55,0-1-.45-1-1Z"/></g><g><path class="d" d="M23.13,8.49c-.39-.39-.39-1.02,0-1.41l2.44-2.44c.39-.39,1.02-.39,1.41,0s.39,1.02,0,1.41l-2.44,2.44c-.39,.39-1.02,.39-1.41,0Z"/><path class="d" d="M4.63,26.99c-.39-.39-.39-1.02,0-1.41l2.44-2.44c.39-.39,1.02-.39,1.41,0s.39,1.02,0,1.41l-2.44,2.44c-.39,.39-1.02,.39-1.41,0Z"/></g><g><path class="d" d="M23.13,23.13c.39-.39,1.02-.39,1.41,0l2.44,2.44c.39,.39,.39,1.02,0,1.41s-1.02,.39-1.41,0l-2.44-2.44c-.39-.39-.39-1.02,0-1.41Z"/><path class="d" d="M4.63,4.63c.39-.39,1.02-.39,1.41,0l2.44,2.44c.39,.39,.39,1.02,0,1.41s-1.02,.39-1.41,0l-2.44-2.44c-.39-.39-.39-1.02,0-1.41Z"/></g><path class="d" d="M80.53,24.93H28.33c-.55,0-1-.45-1-1s.45-1,1-1h52.2c3.8,0,6.89-3.09,6.89-6.89s-3.09-6.89-6.89-6.89H28.33c-.55,0-1-.45-1-1s.45-1,1-1h52.2c4.9,0,8.89,3.99,8.89,8.89s-3.99,8.89-8.89,8.89Z"/><g><path class="e" d="M36.46,19.32v-5.71l-1.45,1.26v-1.4l1.45-1.26h1.3v7.11h-1.3Z"/><path class="e" d="M41.35,19.38c-1.16,0-2.17-.76-2.17-2.12v-2.99c0-1.36,1.01-2.12,2.17-2.12s2.16,.76,2.16,2.12v2.99c0,1.36-1,2.12-2.16,2.12Zm.86-5.09c0-.6-.35-.97-.86-.97s-.87,.37-.87,.97v2.96c0,.6,.36,.96,.87,.96s.86-.36,.86-.96v-2.96Z"/><path class="e" d="M46,19.38c-1.16,0-2.17-.76-2.17-2.12v-2.99c0-1.36,1.01-2.12,2.17-2.12s2.16,.76,2.16,2.12v2.99c0,1.36-1,2.12-2.16,2.12Zm.86-5.09c0-.6-.35-.97-.86-.97s-.87,.37-.87,.97v2.96c0,.6,.36,.96,.87,.96s.86-.36,.86-.96v-2.96Z"/><path class="e" d="M49.9,15.88c-.79,0-1.45-.47-1.45-1.37v-.99c0-.9,.66-1.37,1.45-1.37s1.45,.47,1.45,1.37v.99c0,.9-.67,1.37-1.45,1.37Zm.51-2.31c0-.38-.19-.57-.51-.57s-.51,.19-.51,.57v.91c0,.38,.19,.57,.51,.57s.51-.19,.51-.57v-.91Zm.59,5.76h-1.02l3.36-7.11h1.02l-3.36,7.11Zm3.43,.06c-.79,0-1.45-.47-1.45-1.37v-.99c0-.9,.66-1.37,1.45-1.37s1.45,.47,1.45,1.37v.99c0,.9-.67,1.37-1.45,1.37Zm.51-2.32c0-.38-.19-.57-.51-.57s-.51,.19-.51,.57v.91c0,.38,.18,.57,.51,.57s.51-.19,.51-.57v-.91Z"/></g><g><path class="e" d="M59.29,12.51v1.7h-.3v-1.7h-.54v-.27h1.38v.27h-.54Z"/><path class="e" d="M61.55,14.2v-.86h-.8v.86h-.3v-1.97h.3v.84h.8v-.84h.3v1.97h-.3Z"/><path class="e" d="M62.64,14.2v-1.97h.3v1.97h-.3Z"/><path class="e" d="M64.26,14.22c-.3,0-.51-.07-.7-.26l.2-.2c.14,.14,.3,.19,.5,.19,.26,0,.41-.11,.41-.3,0-.09-.03-.16-.08-.2-.05-.05-.1-.07-.22-.08l-.23-.03c-.16-.02-.29-.08-.37-.16-.1-.09-.14-.22-.14-.38,0-.34,.25-.58,.66-.58,.26,0,.44,.07,.61,.22l-.19,.19c-.12-.12-.26-.15-.43-.15-.23,0-.36,.13-.36,.31,0,.07,.02,.14,.07,.18,.05,.04,.13,.08,.22,.09l.22,.03c.18,.03,.29,.07,.37,.15,.11,.09,.16,.23,.16,.4,0,.36-.3,.58-.71,.58Z"/><path class="e" d="M68.19,14.2h-.26l-.4-1.38-.4,1.38h-.26l-.51-1.97h.32l.34,1.41,.4-1.41h.24l.39,1.41,.34-1.41h.31l-.51,1.97Z"/><path class="e" d="M69.28,14.2v-1.97h1.26v.27h-.96v.57h.82v.27h-.82v.59h.96v.27h-1.26Z"/><path class="e" d="M72.02,14.2h-.8v-1.97h.76c.37,0,.59,.21,.59,.54,0,.21-.13,.36-.26,.42,.15,.06,.3,.21,.3,.46,0,.36-.25,.56-.59,.56Zm-.06-1.7h-.44v.56h.44c.19,0,.32-.1,.32-.28s-.13-.28-.32-.28Zm.03,.83h-.47v.6h.47c.21,0,.32-.13,.32-.3s-.12-.3-.32-.3Z"/><path class="e" d="M73.86,14.22c-.3,0-.51-.07-.7-.26l.2-.2c.14,.14,.3,.19,.5,.19,.26,0,.41-.11,.41-.3,0-.09-.03-.16-.08-.2-.05-.05-.1-.07-.22-.08l-.23-.03c-.16-.02-.29-.08-.37-.16-.1-.09-.14-.22-.14-.38,0-.34,.25-.58,.66-.58,.26,0,.44,.07,.61,.22l-.19,.19c-.12-.12-.26-.15-.43-.15-.23,0-.36,.13-.36,.31,0,.07,.02,.14,.07,.18,.05,.04,.13,.08,.22,.09l.22,.03c.18,.03,.29,.07,.37,.15,.11,.09,.16,.23,.16,.4,0,.36-.3,.58-.71,.58Z"/><path class="e" d="M75.25,14.2v-1.97h.3v1.97h-.3Z"/><path class="e" d="M77,12.51v1.7h-.3v-1.7h-.54v-.27h1.38v.27h-.54Z"/><path class="e" d="M78.16,14.2v-1.97h1.26v.27h-.96v.57h.82v.27h-.82v.59h.96v.27h-1.26Z"/><path class="e" d="M58.63,16.74v-1.97h.3v1.97h-.3Z"/><path class="e" d="M60.24,16.76c-.3,0-.51-.07-.7-.26l.2-.2c.14,.14,.3,.19,.5,.19,.26,0,.41-.11,.41-.3,0-.09-.03-.16-.08-.2-.05-.05-.1-.07-.22-.08l-.23-.03c-.16-.02-.29-.08-.37-.16-.1-.09-.14-.22-.14-.38,0-.34,.25-.58,.66-.58,.26,0,.44,.07,.61,.22l-.19,.19c-.12-.12-.26-.15-.43-.15-.23,0-.36,.13-.36,.31,0,.07,.02,.14,.07,.18,.05,.04,.13,.08,.22,.09l.22,.03c.18,.03,.29,.07,.37,.15,.11,.09,.16,.23,.16,.4,0,.36-.3,.58-.71,.58Z"/><path class="e" d="M63.32,15.97h-.45v.77h-.3v-1.97h.75c.38,0,.63,.25,.63,.6s-.25,.6-.63,.6Zm-.02-.93h-.43v.65h.43c.21,0,.35-.12,.35-.33s-.14-.33-.35-.33Z"/><path class="e" d="M65.74,16.55c-.13,.14-.31,.21-.52,.21s-.38-.07-.52-.21c-.19-.19-.19-.41-.19-.79s0-.6,.19-.79c.13-.14,.31-.21,.52-.21s.38,.07,.52,.21c.19,.19,.19,.41,.19,.79s0,.6-.19,.79Zm-.23-1.4c-.07-.07-.18-.12-.29-.12s-.22,.05-.29,.12c-.1,.1-.12,.22-.12,.61s.02,.51,.12,.61c.07,.07,.18,.12,.29,.12s.22-.05,.29-.12c.1-.1,.12-.22,.12-.61s-.02-.51-.12-.61Z"/><path class="e" d="M68.23,16.74h-.26l-.4-1.38-.4,1.38h-.26l-.51-1.97h.32l.34,1.41,.4-1.41h.24l.39,1.41,.34-1.41h.31l-.51,1.97Z"/><path class="e" d="M69.31,16.74v-1.97h1.26v.27h-.96v.57h.82v.27h-.82v.59h.96v.27h-1.26Z"/><path class="e" d="M72.35,16.74l-.41-.83h-.37v.83h-.3v-1.97h.76c.37,0,.61,.24,.61,.57,0,.28-.17,.46-.39,.52l.45,.87h-.35Zm-.34-1.7h-.44v.62h.44c.2,0,.33-.11,.33-.31s-.13-.31-.33-.31Z"/><path class="e" d="M73.35,16.74v-1.97h1.26v.27h-.96v.57h.82v.27h-.82v.59h.96v.27h-1.26Z"/><path class="e" d="M76.5,16.56c-.12,.12-.3,.19-.51,.19h-.69v-1.97h.69c.2,0,.38,.06,.51,.19,.21,.21,.2,.5,.2,.78s.01,.6-.2,.81Zm-.2-1.38c-.08-.09-.19-.13-.33-.13h-.36v1.43h.36c.14,0,.25-.04,.33-.13,.1-.11,.11-.33,.11-.6s0-.46-.11-.57Z"/><path class="e" d="M79.16,16.74h-.8v-1.97h.76c.37,0,.59,.21,.59,.54,0,.21-.13,.36-.26,.42,.15,.06,.3,.21,.3,.46,0,.36-.25,.56-.59,.56Zm-.06-1.7h-.44v.56h.44c.19,0,.32-.1,.32-.28s-.13-.28-.32-.28Zm.03,.83h-.47v.6h.47c.21,0,.32-.13,.32-.3s-.12-.3-.32-.3Z"/><path class="e" d="M81.12,15.93v.81h-.3v-.81l-.59-1.16h.33l.41,.86,.41-.86h.33l-.59,1.16Z"/><path class="e" d="M59.71,19.28l-.41-.83h-.37v.83h-.3v-1.97h.76c.37,0,.61,.24,.61,.57,0,.28-.17,.46-.39,.52l.45,.87h-.35Zm-.34-1.7h-.44v.62h.44c.2,0,.33-.11,.33-.31s-.13-.31-.33-.31Z"/><path class="e" d="M60.72,19.28v-1.97h1.26v.27h-.96v.57h.82v.27h-.82v.59h.96v.27h-1.26Z"/><path class="e" d="M63.87,19.28l-.91-1.38v1.38h-.3v-1.97h.27l.91,1.38v-1.38h.3v1.97h-.27Z"/><path class="e" d="M64.94,19.28v-1.97h1.26v.27h-.96v.57h.82v.27h-.82v.59h.96v.27h-1.26Z"/><path class="e" d="M68.49,19.28h-.26l-.4-1.38-.4,1.38h-.26l-.51-1.97h.32l.34,1.41,.4-1.41h.24l.39,1.41,.34-1.41h.31l-.51,1.97Z"/><path class="e" d="M70.67,19.28l-.14-.4h-.78l-.13,.4h-.32l.72-1.97h.24l.72,1.97h-.32Zm-.52-1.52l-.31,.87h.6l-.3-.87Z"/><path class="e" d="M72.34,19.28h-.8v-1.97h.76c.37,0,.59,.21,.59,.54,0,.21-.13,.36-.26,.42,.15,.06,.3,.21,.3,.46,0,.36-.25,.56-.59,.56Zm-.06-1.7h-.44v.56h.44c.19,0,.32-.1,.32-.28s-.13-.28-.32-.28Zm.03,.83h-.47v.6h.47c.21,0,.32-.13,.32-.3s-.12-.3-.32-.3Z"/><path class="e" d="M73.66,19.28v-1.97h.3v1.7h.95v.27h-1.25Z"/><path class="e" d="M75.52,19.28v-1.97h1.26v.27h-.96v.57h.82v.27h-.82v.59h.96v.27h-1.26Z"/><path class="e" d="M77.99,19.3c-.3,0-.51-.07-.7-.26l.2-.2c.14,.14,.3,.19,.5,.19,.26,0,.41-.11,.41-.3,0-.09-.03-.16-.08-.2-.05-.05-.1-.07-.22-.08l-.23-.03c-.16-.02-.29-.08-.37-.16-.1-.09-.14-.22-.14-.38,0-.34,.25-.58,.66-.58,.26,0,.44,.07,.61,.22l-.19,.19c-.12-.12-.26-.15-.43-.15-.23,0-.36,.13-.36,.31,0,.07,.02,.14,.07,.18,.05,.04,.13,.08,.22,.09l.22,.03c.18,.03,.29,.07,.37,.15,.11,.09,.16,.23,.16,.4,0,.36-.3,.58-.71,.58Z"/></g></g></g></svg>